<svg xmlns="http://www.w3.org/2000/svg" height="1024" preserveAspectRatio="none" style="display: block;" version="1.1" viewBox="0 0 2048 2048" width="1024">
<defs>
	<linearGradient gradientUnits="userSpaceOnUse" id="Gradient1" x1="1242.64" x2="1260.89" y1="969.439" y2="979.622">
		<stop class="stop0" offset="0" stop-color="#16a34a" stop-opacity="1"></stop>
		<stop class="stop1" offset="1" stop-color="#16a34a" stop-opacity="1"></stop>
	</linearGradient>
</defs>
<path d="M 0 0 L 2048 0 L 2048 2048 L 0 2048 L 0 0 z" fill="rgb(255,255,254)" transform="translate(0,0)"></path>
<path d="M 1023.26 61.9671 C 1032.98 69.8531 1044.36 81.2696 1053.33 90.3039 C 1086.86 124.07 1121.85 156.189 1155.88 189.418 C 1162.76 196.139 1172.97 204.857 1178.74 212.112 C 1208.51 217.578 1312.65 244.016 1339.45 271.672 C 1342.55 274.881 1341.77 319.647 1340.8 328.481 C 1339.02 330.975 1338.91 330.799 1336.2 332.377 C 1334.67 338.12 1335.33 370.556 1336.71 376.407 C 1368.12 404.766 1396.96 435.51 1427.07 465.386 L 1578.37 615.503 L 1989.95 1023.63 C 1771.82 1244.22 1552.12 1463.25 1330.87 1680.71 C 1259.85 1751.88 1188.41 1822.63 1116.56 1892.96 C 1086.1 1923.05 1054.53 1955.9 1023.54 1985.02 L 629.738 1593.46 C 440.234 1402.41 249.49 1212.59 57.5175 1024.02 C 99.4153 986.763 146.586 936.529 186.8 896.606 L 405.396 679.96 L 590.891 496.254 C 619.41 468.342 647.71 440.208 675.789 411.853 C 688.241 399.335 701.155 387.115 713.229 374.271 C 712.63 365.213 713.028 350.369 712.994 340.886 L 707.187 331.842 C 706.271 312.994 706.92 286.958 706.893 267.581 C 740.358 243.245 826.458 221.739 867.27 213.883 C 889.272 194.508 914.867 168.848 935.942 148.251 C 965.416 119.867 994.523 91.1027 1023.26 61.9671 z" fill="#16a34a" transform="translate(0,0)"></path>
<path d="M 1023.26 61.9671 C 1032.98 69.8531 1044.36 81.2696 1053.33 90.3039 C 1086.86 124.07 1121.85 156.189 1155.88 189.418 C 1162.76 196.139 1172.97 204.857 1178.74 212.112 C 1208.51 217.578 1312.65 244.016 1339.45 271.672 C 1342.55 274.881 1341.77 319.647 1340.8 328.481 C 1339.02 330.975 1338.91 330.799 1336.2 332.377 C 1334.67 338.12 1335.33 370.556 1336.71 376.407 C 1338.95 451.021 1335.82 531.74 1336.06 607.001 L 1336.08 1272.8 L 1336.16 1306 C 1336.03 1320.78 1335.26 1342.12 1336.15 1356.38 L 1336.16 1365.55 L 1335.66 1378.89 C 1335.46 1383 1335.52 1387.65 1335.48 1391.81 C 1350.69 1397.33 1387.67 1406.48 1400.63 1417.09 C 1405.17 1420.82 1403.3 1451.43 1403.14 1460.17 C 1392.1 1465.84 1363.59 1472.27 1350.52 1476 C 1311.16 1487.4 1271.72 1498.55 1232.22 1509.44 C 1202.62 1517.45 1173.09 1525.68 1143.61 1534.12 C 1117.92 1541.65 1093.89 1550.06 1067.31 1554.32 C 1018.5 1562.15 983.576 1544.08 939.406 1528.18 C 900.875 1514.5 862.266 1501.05 823.579 1487.83 C 786.518 1475.21 749.523 1462.41 712.597 1449.41 C 695.22 1443.3 676.716 1436.46 659.29 1430.47 C 633.486 1424.56 633.831 1398.57 638.781 1377.05 C 641.426 1365.55 701.989 1348.68 713.882 1344.24 C 713.53 1316.05 713.878 1287.27 713.946 1259.04 C 714.257 1253.07 714.061 1245.62 714.063 1239.52 L 714.134 1221.43 C 714.37 1214.55 714.104 1206.68 714.025 1199.73 L 713.83 1163.11 C 713.628 1159.23 713.791 1154.56 713.825 1150.61 C 714.297 1142.23 713.914 1131.07 713.869 1122.49 L 713.821 1109.89 C 714.095 1103.7 713.849 1096.2 713.795 1089.89 C 712.87 1072.01 713.643 1047.09 713.763 1028.89 L 714.405 917.856 L 713.93 572.837 L 713.895 450.87 C 713.885 425.903 714.379 399.051 713.229 374.271 C 712.63 365.213 713.028 350.369 712.994 340.886 L 707.187 331.842 C 706.271 312.994 706.92 286.958 706.893 267.581 C 740.358 243.245 826.458 221.739 867.27 213.883 C 889.272 194.508 914.867 168.848 935.942 148.251 C 965.416 119.867 994.523 91.1027 1023.26 61.9671 z" fill="#16a34a" transform="translate(0,0)"></path>
<path d="M 1023.26 61.9671 C 1032.98 69.8531 1044.36 81.2696 1053.33 90.3039 C 1086.86 124.07 1121.85 156.189 1155.88 189.418 C 1162.76 196.139 1172.97 204.857 1178.74 212.112 C 1138.53 203.256 1084.67 193.481 1043.47 192.296 C 1019.32 191.602 971.929 197.25 948.085 200.567 C 931.086 202.897 914.131 205.539 897.228 208.492 C 891.697 209.503 872.066 213.685 867.27 213.883 C 889.272 194.508 914.867 168.848 935.942 148.251 C 965.416 119.867 994.523 91.1027 1023.26 61.9671 z" fill="#16a34a" transform="translate(0,0)"></path>
<path d="M 1012.99 295.419 C 1016.6 294.969 1015.38 294.608 1018.41 295.782 C 1021.6 301.998 1019.7 324.211 1019.68 332.375 L 1019.48 408.612 L 1019.8 606.383 L 1021.14 1458.04 C 956.045 1434.91 890.616 1412.73 824.874 1391.5 C 799.534 1383.12 774.276 1374.49 749.105 1365.62 L 749.361 334.435 C 762.272 331.751 778.677 329.559 791.876 327.446 C 825.433 321.937 859.076 316.961 892.791 312.521 C 933.267 306.902 972.152 300.071 1012.99 295.419 z" fill="rgb(255,255,254)" transform="translate(0,0)"></path>
<path d="M 882.724 417.315 C 901.122 414.845 920.455 421.853 935.386 432.423 C 1019.58 492.026 993.192 672.396 885.754 689.122 C 807.248 691.55 773.091 607.675 781.173 540.507 C 788.077 483.133 821.49 426.322 882.724 417.315 z" fill="#16a34a" transform="translate(0,0)"></path>
<path d="M 878.335 438.135 C 894.342 437.038 907.704 437.675 921.577 446.925 C 994.533 495.57 975.369 651.022 886.233 668.818 C 881.79 669.07 874.092 669.595 870.038 668.615 C 764.706 643.171 779.662 461.325 878.335 438.135 z" fill="rgb(255,255,254)" transform="translate(0,0)"></path>
<path d="M 877.111 467.576 C 883.826 467.146 907.156 464.731 911.314 469.136 C 922.905 482.313 918.42 506.484 919.212 522.836 C 921.445 568.941 909.91 567.361 871.01 566.935 L 870.928 623.5 L 870.837 646.186 C 863.777 646.108 859.218 645.57 852.186 644.686 C 851.685 586.211 852.445 528.456 851.64 469.793 C 859.096 468.727 869.415 468.198 877.111 467.576 z" fill="#16a34a" transform="translate(0,0)"></path>
<path d="M 890.338 486.422 C 894.981 485.792 896.036 485.59 899.404 488.506 C 901.686 495.819 900.321 533.712 900.172 543.685 C 893.434 544.98 888.201 544.964 881.361 545.162 C 878.042 545.123 874.718 545.582 872.131 543.828 C 870.457 536.588 871.135 498.684 871.162 488.757 C 877.491 487.683 883.949 487.099 890.338 486.422 z" fill="rgb(255,255,254)" transform="translate(0,0)"></path>
<path d="M 877.831 775.952 C 899.552 773.836 899.154 801.098 898.385 816.062 C 897.604 831.27 899.569 843.158 886.208 852.851 C 864.972 854.691 866.279 828.389 866.547 813.576 C 866.801 799.511 864.069 784.168 877.831 775.952 z" fill="#16a34a" transform="translate(0,0)"></path>
<path d="M 881.47 786.45 C 891.951 793.041 889.636 832.098 883.887 841.723 C 872.623 837.812 875.777 794.364 881.47 786.45 z" fill="rgb(255,255,254)" transform="translate(0,0)"></path>
<path d="M 1087.36 382.69 C 1092.88 383.058 1100.49 384.153 1105.98 385.118 C 1171.55 396.661 1237.6 403.989 1303.43 413.663 L 1303.94 858.453 C 1296.1 859.126 1288.26 859.843 1280.42 860.605 C 1215.95 867.878 1151.44 874.753 1086.88 881.23 C 1085.88 833.579 1087.18 781.594 1087.25 733.644 L 1087.36 382.69 z" fill="rgb(255,255,254)" transform="translate(0,0)"></path>
<path d="M 1123.86 410.399 C 1168.7 411.706 1217.97 422.156 1263.05 425.909 C 1274.88 426.894 1286.33 436.56 1286.8 448.943 C 1287.6 470.068 1287.01 491.9 1287.04 513.218 L 1287.14 574.68 C 1287.15 593.9 1292.06 627.477 1265.71 629.621 C 1232.12 628.597 1198.55 627.27 1164.99 625.639 C 1105.57 622.782 1103.25 629.956 1103.4 567.296 L 1103.65 501.267 C 1103.67 478.677 1102.31 455.706 1103.43 433.205 C 1104.1 419.91 1110.81 411.762 1123.86 410.399 z" fill="#16a34a" transform="translate(0,0)"></path>
<path d="M 1123.17 420.138 C 1149.69 423.435 1176.25 426.503 1202.82 429.342 C 1221.61 431.376 1240.49 433.305 1259.13 436.406 C 1268.51 437.966 1276.03 442.128 1276.37 452.712 C 1276.95 470.333 1276.28 488.127 1276.33 505.789 C 1276.41 536.795 1276.67 567.835 1276.44 598.836 C 1276.36 608.51 1275.26 611.474 1268.13 617.987 C 1261.81 618.766 1230.97 617.237 1222.77 616.952 C 1192.55 615.902 1161.67 615.076 1131.48 613.315 C 1126.79 612.621 1120.59 612.767 1117.96 608.138 C 1111.52 596.828 1113.64 574.701 1113.67 561.658 L 1113.82 499.24 C 1113.83 477.934 1113.39 453.151 1114.5 431.769 C 1114.74 427.17 1119.28 422.691 1123.17 420.138 z" fill="rgb(255,255,254)" transform="translate(0,0)"></path>
<path d="M 1125.06 650.148 C 1137.57 649.336 1152.96 650.404 1165.62 650.757 C 1197.71 651.825 1230.42 652.236 1262.44 653.186 C 1288.03 654.071 1289.77 665.336 1289.63 687.446 C 1289.34 731.984 1290.04 776.375 1289.15 820.883 C 1288.99 828.947 1283.7 833.44 1277.97 838.115 C 1272.81 839.183 1263.34 839.685 1257.76 840.136 C 1236.04 841.656 1134.68 853.041 1120.87 849.58 C 1115.75 848.299 1111.33 844.126 1108.86 839.556 C 1106.96 836.031 1106.2 832.314 1105.86 828.354 C 1104.13 808.301 1104.41 674.242 1108.22 663.812 C 1110.86 656.606 1118.46 652.867 1125.06 650.148 z" fill="#16a34a" transform="translate(0,0)"></path>
<path d="M 1229.83 704.504 C 1237.54 704.374 1245.25 704.295 1252.96 704.268 L 1253.25 828.977 C 1215.99 833.416 1176.83 834.205 1140.38 838.82 C 1128.03 839.74 1124.47 841.883 1117.2 830.861 C 1115.8 816.971 1116.25 796.018 1116.23 781.599 C 1116.16 756.317 1116.24 731.035 1116.5 705.754 L 1229.83 704.504 z" fill="rgb(255,255,254)" transform="translate(0,0)"></path>
<path d="M 1164.69 769.783 C 1179.93 768.416 1182.3 787.872 1182.18 799.052 C 1182.07 810.523 1182.31 822.237 1170.46 827.278 C 1154.09 826.914 1151.27 812.732 1151.6 799.085 C 1151.91 786.712 1152.97 775.769 1164.69 769.783 z" fill="#16a34a" transform="translate(0,0)"></path>
<path d="M 1164.24 777.689 C 1181.27 778.927 1176.87 812.008 1170.04 820.581 C 1155.59 818.623 1156.03 786.898 1164.24 777.689 z" fill="rgb(255,255,254)" transform="translate(0,0)"></path>
<path d="M 1211.99 767.563 C 1221.76 767.033 1230.41 766.967 1240.15 766.977 C 1237.44 780.203 1231.42 798.965 1227.54 812.352 C 1232.81 812.008 1236.33 811.324 1241.32 813.004 L 1242.33 816.447 C 1234.2 821.737 1227.86 821.235 1218.19 821.814 C 1221.24 807.129 1226.71 789.587 1230.9 774.918 L 1215.73 775.125 C 1216 773.2 1216.17 771.21 1216.37 769.272 L 1215.13 768.676 C 1207.63 775.698 1207.87 812.431 1201.96 823.943 C 1198.94 825.243 1198.64 824.931 1195.41 824.524 C 1194.15 821.641 1197.66 812.711 1198.44 808.756 C 1200.57 798.077 1202.57 787.412 1204.55 776.706 C 1199.06 776.989 1191.07 778.252 1186.79 775.333 C 1185.66 772.567 1185.7 772.777 1186.31 769.847 C 1190.94 767.818 1205.93 767.786 1211.99 767.563 z" fill="#16a34a" transform="translate(0,0)"></path>
<path d="M 1127.15 661.425 C 1145.88 661.886 1266.93 661.679 1274.66 667.306 C 1277.44 669.332 1278.84 673.026 1279.38 676.291 C 1281.66 690.124 1279.96 718.517 1280 733.515 L 1280.11 790.167 C 1280.13 798.287 1281.65 820.5 1277.52 826.167 C 1274.21 828.415 1273.3 828.196 1269.13 828.587 C 1265.91 828.626 1262.8 829.194 1260.42 827.381 C 1259.27 820.313 1259.76 793.422 1259.75 785.426 L 1259.67 697.633 C 1212.03 698.969 1164.37 699.442 1116.71 699.05 C 1116.43 685.909 1112.19 665.872 1127.15 661.425 z" fill="rgb(255,255,254)" transform="translate(0,0)"></path>
<path d="M 1297.91 879.45 C 1300.57 878.955 1300.65 878.68 1303.13 879.544 C 1305.4 888.835 1303.66 947.522 1303.63 959.79 L 1303.04 1182.61 C 1288.6 1171.37 1264.03 1162.68 1245.93 1161.36 C 1189.82 1157.24 1143.79 1180.04 1102.15 1214.31 C 1097.12 1218.81 1091.81 1224.58 1087.08 1229.52 L 1086.3 903.363 C 1110.04 902.322 1148.39 896.344 1172.64 893.332 C 1214.35 888.309 1256.11 883.681 1297.91 879.45 z" fill="rgb(255,255,254)" transform="translate(0,0)"></path>
<path d="M 1259 947.346 C 1261.07 947.034 1263.37 946.941 1265.38 947.628 C 1267.88 948.482 1269.57 950.749 1270.47 953.129 C 1271.95 957.016 1272.56 961.359 1272.79 965.493 C 1273.35 975.172 1274.2 1054.25 1271.31 1058.82 C 1266.54 1066.39 1251.2 1066.59 1243.22 1067.77 C 1239.09 1068.59 1232.54 1067.35 1231.74 1062.04 C 1228.53 1040.92 1230.69 1018.55 1230.24 997.088 C 1230.03 987.081 1229.45 962.38 1233.49 954.203 C 1240.16 948.058 1249.32 948.677 1259 947.346 z" fill="#16a34a" transform="translate(0,0)"></path>
<path d="M 1253.89 956.387 C 1257.5 955.962 1260.57 955.097 1263.72 956.585 C 1267.8 965.533 1266.39 1041.65 1265.09 1053.9 L 1248.22 1056.87 L 1239.08 1059.29 C 1237.84 1049.29 1236.65 963.667 1239.7 960.179 C 1242.77 956.655 1249.54 956.846 1253.89 956.387 z" fill="rgb(255,255,254)" transform="translate(0,0)"></path>
<path d="M 1251.83 995.562 C 1268 999.298 1260.24 1029.42 1261.77 1041.04 C 1261.98 1042.63 1262.22 1043.26 1262.28 1045.08 L 1260.53 1046.53 C 1255.67 1047.13 1249.82 1048.54 1245.58 1046.46 C 1242.5 1041.24 1243.13 1027.14 1243.41 1020.4 C 1243.87 1009.26 1243.91 1003.04 1251.83 995.562 z" fill="#16a34a" transform="translate(0,0)"></path>
<path d="M 1251.44 1004.25 C 1253.78 1005.15 1253.49 1005.19 1255.6 1006.7 C 1254.56 1008.34 1254.04 1008.73 1252.61 1010.04 C 1251.65 1017.14 1258.01 1015.96 1253.8 1025.2 L 1255.8 1027.77 L 1255.32 1029.41 L 1252.98 1030.04 C 1245.35 1025.6 1248.69 1010.86 1251.44 1004.25 z" fill="rgb(255,255,254)" transform="translate(0,0)"></path>
<path d="M 1252 962.373 C 1267.21 961.505 1266.32 982.965 1255.46 990.185 C 1241.45 990.011 1239.91 975.511 1244 965.114 C 1245.04 962.474 1249.51 962.703 1252 962.373 z" fill="url(#Gradient1)" transform="translate(0,0)"></path>
<path d="M 1225.72 1171.44 C 1255.33 1169.02 1279.54 1178.33 1303.55 1194.6 C 1302.59 1259.43 1303.67 1326.87 1303.33 1392.17 L 1150.74 1437.53 C 1129.75 1444.16 1107.64 1450.1 1086.37 1456.09 C 1085.8 1432.62 1086.56 1405.87 1086.66 1382.17 L 1087 1243.74 C 1126.37 1201.29 1166.95 1175.94 1225.72 1171.44 z" fill="rgb(255,255,254)" transform="translate(0,0)"></path>
<path d="M 1030.88 202.581 C 1096.13 197.184 1277.82 239.506 1332.15 276.592 C 1332.24 291.504 1332.03 306.648 1331.97 321.581 C 1288.2 309.576 1241.94 301.727 1197.43 292.732 C 1168.73 286.657 1139.91 281.139 1110.99 276.181 C 1080.53 270.814 1056.16 265.546 1025.36 270.354 C 1002.97 272.973 980.258 277.955 957.82 280.431 C 877.117 289.336 796.33 307.893 716.067 317.571 L 715.822 272.778 C 791.513 229.977 943.325 207.752 1030.88 202.581 z" fill="rgb(255,255,254)" transform="translate(0,0)"></path>
<path d="M 711.614 1356.04 L 713.027 1356.15 C 714.706 1358.24 714.478 1369.7 714.648 1373.5 C 723.05 1377.84 750.996 1386.69 761.196 1390.1 C 798.736 1402.64 835.633 1414.15 873.056 1427.32 L 986.757 1466.43 C 999.47 1470.85 1025.98 1481.99 1038.13 1483.83 C 1065.81 1488.01 1107.78 1470.19 1134.4 1462.55 C 1201.68 1443.15 1268.66 1422.75 1335.33 1401.34 C 1349.64 1405.04 1381.01 1415.45 1394.62 1420.89 C 1377.5 1426.53 1358.39 1431.48 1340.91 1436.26 C 1279.37 1452.47 1217.93 1469.03 1156.59 1485.94 C 1110 1498.7 1059.34 1518.91 1010.82 1508.21 C 990.827 1503.81 968.67 1494.48 949.136 1487.51 L 852.815 1453.5 C 812.094 1439.28 771.296 1425.28 730.421 1411.5 C 716.14 1406.63 655.722 1388.39 650.344 1379.18 L 651.005 1377.47 C 659.332 1370.87 698.997 1359.87 711.614 1356.04 z" fill="rgb(255,255,254)" transform="translate(0,0)"></path>
<path d="M 1039.38 293.366 C 1042.54 293.371 1046.27 292.859 1048.67 294.208 C 1049.63 316.938 1049 343.802 1049 366.816 L 1048.99 498.581 L 1049 916.8 L 1048.88 1281.41 L 1048.91 1399.82 C 1048.93 1420.07 1049.61 1444.98 1048.6 1464.99 C 1046.17 1466.32 1046.31 1465.69 1042.78 1464.97 C 1039.26 1464.05 1035.26 1462.68 1031.74 1461.58 C 1030.13 1332.25 1032 1202.18 1031.56 1072.76 L 1031.27 295.57 C 1034.07 293.129 1034.79 293.873 1039.38 293.366 z" fill="rgb(255,255,254)" transform="translate(0,0)"></path>
<path d="M 1060.56 294.836 C 1065.94 294.847 1071.64 295.376 1077.04 295.756 L 1076.67 1251.47 C 1076.64 1304.88 1077.35 1403.08 1076.47 1460.32 C 1076.46 1461.16 1074.32 1461.68 1073.13 1462.16 L 1060.41 1465.24 C 1059.76 1419.56 1060.53 1372.83 1060.59 1327 L 1060.76 1051.11 L 1060.56 294.836 z" fill="rgb(255,255,254)" transform="translate(0,0)"></path>
<path d="M 646.753 1390.24 C 666 1400.79 698.531 1410.54 720.349 1417.89 C 756.522 1429.93 792.588 1442.28 828.544 1454.95 L 945.914 1496.13 C 965.827 1503.06 990.509 1513.27 1010.74 1516.97 C 1064.4 1526.79 1117.2 1505.23 1168.49 1492.04 C 1244.01 1472.63 1319.2 1449.33 1395.08 1431.22 C 1395.09 1436.89 1395.62 1449.46 1394.39 1454.21 L 1392.64 1455.15 C 1361.53 1462.43 1326.8 1473.36 1295.73 1482.24 L 1162.93 1519.53 C 1127.15 1529.71 1087.71 1544.31 1050.66 1546.88 C 1039.69 1547.64 1014.2 1546.18 1003.84 1542.24 C 955.86 1524 907.573 1507.26 859.124 1490.24 C 817.796 1475.73 776.388 1461.44 734.904 1447.38 C 713.642 1440.11 661.096 1424.9 646.682 1411.71 L 646.753 1390.24 z" fill="rgb(255,255,254)" transform="translate(0,0)"></path>
<path d="M 735.579 335.173 C 737.707 335.091 736.648 334.858 738.7 336.091 C 739.883 357.035 739.019 387.265 739.039 409.01 L 739.262 544.913 C 740.152 684.935 740.192 824.962 739.383 964.985 L 739.125 1231.74 L 739.092 1315.77 C 739.083 1329.14 739.667 1348.65 738.61 1361.23 C 736.068 1362.2 733.234 1361.03 730.4 1360.33 C 728.661 1359.82 727.003 1359.17 725.301 1358.54 C 723.386 1355.13 724.394 1244.6 724.454 1230.85 L 724.753 1026.71 L 724.061 337.883 C 727.614 336.85 731.914 336.002 735.579 335.173 z" fill="rgb(255,255,254)" transform="translate(0,0)"></path>
<path d="M 1087.12 295.46 C 1155.76 311.284 1235.98 319.396 1303.72 337.356 C 1303.62 355.525 1303.63 373.695 1303.76 391.864 C 1295.64 390.2 1285.86 388.986 1277.52 387.856 C 1214.06 379.26 1150.49 367.2 1087.04 359.145 L 1087.12 295.46 z" fill="rgb(255,255,254)" transform="translate(0,0)"></path>
<path d="M 1313.94 340.213 L 1325.44 340.933 L 1324.93 1113.65 L 1324.82 1312.95 L 1324.9 1361.46 C 1324.92 1366.97 1325.35 1381.37 1324.4 1386.23 C 1320.96 1387.17 1318.15 1388.37 1315.21 1386.8 C 1314.22 1377.6 1314.8 1360.19 1314.84 1350.45 L 1314.91 1285.64 L 1314.23 1051 L 1313.94 340.213 z" fill="rgb(255,255,254)" transform="translate(0,0)"></path>
<path d="M 722.109 1368.13 C 732.01 1368.09 768.28 1381.88 780.526 1385.85 C 830.798 1402.15 876.552 1417.68 927.233 1434.25 C 967.532 1446.84 1006.95 1466.04 1048.42 1473.96 C 1051.61 1474.57 1062.9 1472.81 1066.38 1471.62 C 1081.61 1466.39 1096.65 1461.72 1112.12 1457.3 C 1165.81 1441.94 1219.39 1426.17 1272.84 1410 C 1284.38 1406.52 1318.04 1395.23 1328.25 1395.48 C 1321.33 1398.18 1303.17 1402.63 1295.44 1404.84 C 1277.21 1410.2 1259.01 1415.68 1240.85 1421.27 C 1200.09 1433.69 1159.23 1445.77 1118.27 1457.51 C 1043.27 1479.71 1058.91 1484.07 984.125 1456.32 C 962.663 1448.34 941.085 1440.68 919.396 1433.35 L 761.439 1381.14 C 753.836 1378.55 726.35 1370.59 722.109 1368.13 z" fill="#16a34a" transform="translate(0,0)"></path>
<path d="M 423.164 1354.05 C 436.621 1350.76 456.727 1343.7 470.166 1339.27 L 549.786 1313.09 L 651.167 1280.09 C 671.979 1273.31 693.54 1266.8 713.946 1259.04 C 713.878 1287.27 713.53 1316.05 713.882 1344.24 C 701.989 1348.68 641.426 1365.55 638.781 1377.05 C 633.831 1398.57 633.486 1424.56 659.29 1430.47 C 676.716 1436.46 695.22 1443.3 712.597 1449.41 C 749.523 1462.41 786.518 1475.21 823.579 1487.83 C 862.266 1501.05 900.875 1514.5 939.406 1528.18 C 983.576 1544.08 1018.5 1562.15 1067.31 1554.32 C 1093.89 1550.06 1117.92 1541.65 1143.61 1534.12 C 1173.09 1525.68 1202.62 1517.45 1232.22 1509.44 C 1271.72 1498.55 1311.16 1487.4 1350.52 1476 C 1363.59 1472.27 1392.1 1465.84 1403.14 1460.17 C 1403.3 1451.43 1405.17 1420.82 1400.63 1417.09 C 1387.67 1406.48 1350.69 1397.33 1335.48 1391.81 C 1335.52 1387.65 1335.46 1383 1335.66 1378.89 C 1403.82 1399.25 1471.1 1421.84 1539.29 1441.2 L 1219.32 1758.11 C 1175.86 1800.44 1132.78 1843.16 1090.1 1886.28 C 1067.59 1908.62 1045.84 1928.33 1023.94 1951.67 C 997.326 1924.24 968.628 1899.06 942.35 1871.28 C 933.547 1861.98 924.337 1852.85 915.347 1843.71 C 924.334 1839.97 934.767 1836.25 943.997 1833.14 C 1021.59 1806.95 1098.36 1777.16 1175.6 1750.27 C 1135.32 1734.75 1086.97 1713.7 1047.14 1696.45 C 1024.29 1703.43 991.321 1717.21 968.142 1725.94 L 843.225 1771.95 C 823.442 1751.4 803.152 1731.09 782.752 1711.14 C 662.178 1593.27 544.743 1470.75 423.164 1354.05 z" fill="rgb(255,255,254)" transform="translate(0,0)"></path>
<path d="M 616.565 1134.69 C 648.745 1144.85 681.382 1153.31 713.83 1163.11 L 714.025 1199.73 C 699.953 1204.55 685.681 1208.39 671.528 1212.88 C 573.425 1244.04 475.602 1277.6 376.852 1306.6 C 365.035 1295.54 352.572 1282.2 340.795 1270.68 C 328.947 1259.09 312.319 1244.26 301.609 1232.23 C 317.062 1224.84 362.499 1212.74 380.628 1206.84 C 458.61 1181.42 538.343 1159.16 616.565 1134.69 z" fill="rgb(255,255,254)" transform="translate(0,0)"></path>
<path d="M 153.758 966.248 C 167.395 970.592 183.29 974.279 197.317 978.362 C 254.208 994.923 312.021 1009.75 369.041 1025.83 L 602.692 1090.65 C 638.569 1100.67 678.505 1113.43 713.869 1122.49 C 713.914 1131.07 714.297 1142.23 713.825 1150.61 C 696.645 1146.21 672.23 1137.94 654.468 1132.71 L 488.062 1082.83 L 276.666 1018.97 C 231.102 1005.46 184.865 992.992 139.517 978.809 C 143.744 974.373 149.02 970.204 153.758 966.248 z" fill="rgb(255,255,254)" transform="translate(0,0)"></path>
<path d="M 1336.92 1320.6 C 1408.46 1339.24 1479.66 1362.25 1551.1 1381.53 C 1563.12 1384.77 1575.97 1388.33 1587.75 1392.31 C 1575.17 1406.04 1561.89 1419.11 1547.94 1431.47 L 1336.16 1365.55 L 1336.15 1356.38 C 1337.4 1346.66 1336.93 1330.88 1336.92 1320.6 z" fill="rgb(255,255,254)" transform="translate(0,0)"></path>
<path d="M 1336.08 1272.8 C 1355.46 1276.17 1376.95 1282.74 1396.1 1288.1 L 1494.58 1315.75 L 1588.65 1340.64 C 1601.44 1344.12 1616.74 1347.43 1628.89 1352 C 1623.12 1359.96 1605.74 1375.06 1598.01 1382.47 C 1512.85 1354.83 1422.17 1332.49 1336.16 1306 L 1336.08 1272.8 z" fill="rgb(255,255,254)" transform="translate(0,0)"></path>
<path d="M 172.776 946.578 C 191.306 949.907 211.661 955.669 230.047 960.474 C 261.445 968.683 292.797 977.063 324.103 985.615 L 559.282 1048.6 C 608.382 1061.94 664.733 1078.67 713.795 1089.89 C 713.849 1096.2 714.095 1103.7 713.821 1109.89 C 675.876 1101.45 633.312 1087.27 595.09 1076.98 L 309.703 999.088 C 261.638 985.861 208.921 970.268 160.94 958.634 L 172.776 946.578 z" fill="rgb(255,255,254)" transform="translate(0,0)"></path>
<path d="M 394.012 1324.28 C 418.459 1315.42 447.093 1306.91 472.061 1298.83 L 600.902 1257.45 C 639.255 1245.52 675.234 1232.45 714.134 1221.43 L 714.063 1239.52 C 704.171 1241.48 670.675 1253.06 659.657 1256.63 L 553.683 1291.08 C 520.61 1302.1 486.745 1311.85 453.642 1323 C 438.826 1327.99 423.387 1332.17 408.76 1337.7 C 404.079 1333.74 398.624 1328.49 394.012 1324.28 z" fill="rgb(255,255,254)" transform="translate(0,0)"></path>
<path d="M 1639.67 707.802 C 1641.75 709.978 1639.81 725.096 1639.5 729.324 C 1638.51 742.386 1637.62 755.454 1636.82 768.529 C 1633.76 817.41 1631.44 866.253 1627.3 915.075 C 1626.13 928.975 1625.07 943.54 1624.98 957.454 C 1661.6 958.645 1698.22 959.497 1734.86 960.012 C 1728.51 975.617 1719.9 991.473 1712.04 1006.47 L 1671.08 1083.35 C 1630.09 1161.11 1590.88 1236.38 1546.73 1312.57 L 1544.98 1313.86 L 1543.77 1312.59 C 1541.58 1300.49 1545.84 1265.47 1546.18 1251.51 C 1547.68 1190.51 1555.39 1128.63 1557.46 1067.83 C 1545.94 1066.4 1529.86 1065.86 1518.06 1065.21 C 1495.82 1063.91 1473.58 1062.81 1451.33 1061.9 C 1466.21 1027.38 1490.78 985.73 1508.29 951.595 L 1568.9 836.087 C 1592.38 791.623 1613.71 750.91 1639.67 707.802 z" fill="rgb(255,255,254)" transform="translate(0,0)"></path>
<path d="M 1606.63 822.762 C 1607.11 825.628 1604.4 849.642 1604.18 854.703 C 1602.36 897.293 1597.55 940.151 1596.87 982.753 L 1691.22 986.265 C 1675.24 1017.45 1660.25 1049.96 1643.42 1080.57 C 1620.12 1122.98 1598.16 1165.06 1576.42 1208.25 C 1575.46 1197.02 1578.61 1163.04 1579.58 1150.33 C 1582.54 1114.33 1585.03 1078.29 1587.04 1042.22 C 1557.57 1039.2 1523.77 1039.58 1492.58 1036.69 C 1509.76 1008.4 1521.27 983.718 1536.41 954.553 C 1559.21 910.306 1582.62 866.371 1606.63 822.762 z" fill="#16a34a" transform="translate(0,0)"></path>
<path d="M 383.285 1065.17 C 385.9 1065.01 510.912 1102.83 521.48 1106.52 C 499.17 1112.1 476.496 1119.4 454.358 1125.82 L 310.751 1167.9 C 292.39 1173.32 273.262 1179.8 254.965 1185.67 C 235.553 1166.01 206.522 1139.91 189.903 1120.64 L 383.285 1065.17 z" fill="rgb(255,255,254)" transform="translate(0,0)"></path>
<path d="M 131.814 986.732 C 137.574 989.413 159.859 996.038 167.371 998.409 C 196.122 1007.53 225.003 1016.24 254.007 1024.52 C 265.299 1027.85 287.214 1033.83 297.075 1039.29 C 284.755 1040.64 248.969 1051.04 234.704 1054.61 C 205.351 1062.13 176.082 1069.98 146.9 1078.14 C 128.127 1060.78 110.718 1043.14 92.709 1025 C 105.254 1011.75 118.299 998.988 131.814 986.732 z" fill="rgb(255,255,254)" transform="translate(0,0)"></path>
<path d="M 1044.79 1724.11 C 1052.21 1725.05 1096.22 1745.17 1105.09 1749.24 C 1083.35 1758.1 1059.91 1763.65 1038.74 1772.1 C 998.969 1787.98 957.457 1800.24 917.752 1815.49 L 895.65 1824.14 C 885.111 1813.37 874.425 1802.74 863.594 1792.27 C 888.091 1781.49 912.681 1772.68 937.731 1763.31 L 1044.79 1724.11 z" fill="rgb(255,255,254)" transform="translate(0,0)"></path>
<path d="M 553.271 1116.12 C 557.032 1115.78 576.715 1121.66 581.514 1123.02 C 559.087 1131.89 527.189 1140.09 503.521 1147.44 L 375.412 1187.15 C 349.57 1195.16 322.416 1203.13 296.942 1211.95 L 286.798 1215.37 C 282.486 1212.15 276.073 1206.02 271.877 1202.23 C 304.501 1190.44 351.084 1178.29 385.032 1168.3 C 441.276 1151.44 497.358 1134.05 553.271 1116.12 z" fill="rgb(255,255,254)" transform="translate(0,0)"></path>
<path d="M 328.18 1048.14 C 333.396 1048.61 343.299 1052.45 348.164 1054.37 C 334.234 1059.4 315.764 1064.31 301.41 1068.56 C 261.233 1080.45 220.878 1090.73 180.712 1102.84 L 176.493 1104.33 C 171.427 1103.58 167.024 1098.72 163.038 1095.17 C 182.611 1087.86 215.89 1079.9 236.934 1074.28 C 267.503 1066.11 297.923 1057.39 328.18 1048.14 z" fill="rgb(255,255,254)" transform="translate(0,0)"></path>
<metadata><recraft-signature>{"signed_by": "recraft", "signature_b64": "Sxd8R4Pc3Fsg9eLSd9Q8sFJEOUCX5mqoU/LSnLdjnJq1wQvVA5ZNQcHMW+MVuC/4eZ3ksl2OCmdCCfowVBCcDw==", "signing_algo": "Ed25519", "generation_timestamp": 1779056111, "identifier": "650ac679-5a65-4b2c-bf83-3e8ce96dc9d0"}</recraft-signature></metadata></svg>