<svg xmlns="http://www.w3.org/2000/svg" height="1024" preserveAspectRatio="none" style="display: block;" version="1.1" viewBox="0 0 2048 2048" width="1024">
<path d="M 0 0 L 2048 0 L 2048 2048 L 0 2048 L 0 0 z" fill="#16a34a" transform="translate(0,0)"></path>
<path d="M 998.541 170.432 C 1131.49 164.034 1271.78 205.697 1382.04 278.274 C 1532.54 377.342 1637.44 537.894 1671.93 714.126 C 1690.35 808.201 1688.43 893.3 1658.37 984.449 C 1633.27 1060.56 1597.31 1128.03 1556.22 1196.37 C 1524.27 1249.52 1493.25 1301.11 1457.73 1352.06 C 1429.05 1393.63 1397.71 1433.35 1367.79 1473.98 C 1324.18 1532.22 1283.86 1593.48 1240.26 1651.61 C 1197.16 1709.07 1158.14 1768.47 1118.24 1828.2 C 1091.43 1868.35 1061.81 1907.21 1035.33 1947.48 C 1032.38 1952.43 1027.85 1958.79 1024.56 1963.7 C 949.355 1862.15 879.209 1751.93 805.389 1648.64 L 637.801 1415.53 C 617.136 1386.54 595.186 1358.34 574.712 1329.24 C 562.873 1312.41 551.865 1294.2 540.41 1276.96 C 480.649 1187.03 426.626 1093.93 393.337 990.618 C 380.066 949.432 367.277 908.132 365.091 864.56 C 358.177 653.809 449.435 453.804 611.439 320.002 C 720.622 229.116 856.613 176.571 998.541 170.432 z" fill="rgb(252,253,252)" transform="translate(0,0)"></path>
<path d="M 993.055 296.101 C 1289.09 278.812 1543.08 504.817 1560.3 800.857 C 1577.53 1096.9 1351.47 1350.83 1055.42 1367.99 C 759.469 1385.15 505.627 1159.17 488.408 863.224 C 471.188 567.274 697.109 313.384 993.055 296.101 z" fill="#16a34a" transform="translate(0,0)"></path>
<path d="M 943.258 424.138 C 956.97 423.972 972.968 423.676 986.494 425.13 C 986.938 431.348 987.439 435.66 988.429 441.814 C 1001.72 442.12 1021.11 442.359 1034.04 441.82 C 1098.48 439.129 1089.18 462.933 1089.53 513.362 L 1089.65 625.908 L 1089.7 941.211 C 1089.84 981.965 1088.33 1027.32 1089.82 1067.5 C 1119.33 1075.61 1147.94 1087.07 1173.09 1104.47 C 1203.83 1126.25 1227.68 1148.86 1264.28 1161.21 C 1319.88 1181.08 1338.52 1139.3 1324.1 1091.26 C 1285.68 963.204 1190.39 832.789 1231.16 693.452 L 1180.85 694.084 C 1180.03 643.012 1179.91 591.93 1180.5 540.854 L 1202.92 540.679 C 1202.99 527.858 1200.39 465.937 1205.68 458.725 C 1207.78 455.862 1212.99 453.345 1216.48 453.091 C 1219.98 452.836 1223.56 454.421 1225.97 456.951 C 1227.8 458.879 1228.58 460.872 1229.03 463.445 C 1230.5 471.89 1229.51 481.434 1229.45 490.023 L 1229.08 541.019 L 1279.06 541.134 C 1278.97 528.623 1276.54 464.018 1281.43 457.836 C 1283.74 454.912 1287.98 453.891 1291.52 453.862 C 1294.83 453.83 1298 455.189 1300.26 457.609 C 1304.72 462.318 1303.46 481.37 1303.46 488.171 C 1303.47 505.722 1303.34 523.376 1303.25 540.931 L 1329.05 540.964 L 1329.23 615.377 C 1329.6 641.568 1329.67 667.762 1329.45 693.954 C 1308.15 693.988 1287.01 693.169 1265.66 693.65 C 1225.83 797.845 1290.13 915.274 1327.83 1011.35 C 1348.91 1065.08 1391.17 1152.36 1321.74 1191.03 C 1285.31 1211.33 1225.03 1181.25 1194.9 1159.6 C 1157.95 1131.32 1134.24 1114.81 1089.03 1098.97 C 1089.2 1129.71 1089.18 1160.45 1088.98 1191.19 L 765.52 1191.15 C 765.519 1191.02 765.517 1190.89 765.516 1190.77 L 765.091 679.073 L 764.812 541.064 C 764.645 516.669 763.964 491.855 765.202 467.566 C 765.825 457.351 781.368 442.57 791.192 442.384 C 839.865 441.46 892.802 440.814 941.217 442.105 C 941.745 436.1 942.425 430.109 943.258 424.138 z" fill="rgb(252,253,252)" transform="translate(0,0)"></path>
<path d="M 832.671 500.299 C 889.546 497.179 952.586 501.715 1009.93 500.237 C 1033.96 499.618 1044.36 525.235 1040.51 546.219 C 1033.98 581.865 1058.29 635.497 1014.42 650.034 C 1005.22 651.779 955.539 651.045 943.792 651.034 L 877.379 650.862 C 830.587 650.594 803.421 655.771 806.888 597.379 C 808.186 575.519 805.279 550.407 806.904 528.225 C 808.106 511.833 817.421 503.562 832.671 500.299 z" fill="#16a34a" transform="translate(0,0)"></path>
<path d="M 960.578 688.44 C 965.708 689.282 974.513 694.466 979.479 697.105 C 963.425 721.685 947.908 750.071 933.849 775.834 C 925.271 791.554 912.511 811.55 905.934 827.72 C 932.445 837.302 971.923 851.25 997.261 861.94 C 991.578 868.461 984.994 878.53 979.858 885.779 C 969.39 900.447 959.048 915.205 948.834 930.051 C 920.716 970.395 890.971 1011.68 863.808 1052.57 C 859.805 1058.61 856.481 1063.1 852.025 1068.82 L 835.63 1059.49 C 840.262 1049.26 845.069 1040.08 850.392 1030.16 C 867.379 998.51 884.062 966.623 900.054 934.459 C 908.009 918.459 916.654 902.891 923.26 886.28 C 901.441 878.645 874.279 868.522 853.152 859.322 C 857.945 850.835 865.113 840.834 870.494 832.25 L 904.689 777.009 C 922.945 748.054 941.495 716.62 960.578 688.44 z" fill="#16a34a" transform="translate(0,0)"></path>
<path d="M 1259.67 574.798 C 1260.7 580.133 1253.06 616.186 1251.5 624.112 C 1260.01 624.008 1268.52 623.967 1277.04 623.99 C 1268.83 633.732 1247.23 668.634 1243.01 672.125 C 1243.96 663.349 1248.86 641.651 1251.09 632.974 C 1241.87 633.224 1234.03 633.308 1224.82 632.984 C 1233.05 616.872 1249.65 590.113 1259.67 574.798 z" fill="#16a34a" transform="translate(0,0)"></path>
<path d="M 715.513 1200.36 C 717.24 1200.28 718.967 1200.22 720.696 1200.16 C 742.646 1199.51 769.462 1200.76 792.037 1200.69 C 851.653 1200.08 911.273 1199.86 970.893 1200.03 L 1069.99 1199.94 C 1088.83 1199.96 1107.63 1199.45 1126.43 1200.87 C 1152.37 1202.84 1155.3 1217.93 1155.55 1239.8 L 1130.51 1239.78 L 689.517 1240.01 C 688.478 1220.25 693.368 1203.65 715.513 1200.36 z" fill="rgb(252,253,252)" transform="translate(0,0)"></path>
<path d="M 238.537 97.4962 L 1346 97.3184 L 1706.63 97.2818 L 1817.75 97.4258 C 1836.63 97.4573 1855.75 97.2544 1874.55 97.922 C 1891.91 98.538 1907 112.124 1913.96 127.229 C 1916.66 133.072 1916.98 140.903 1917.35 147.287 C 1917.46 189.248 1917.59 231.209 1917.78 273.172 L 1918.21 551.118 L 1918.14 1235.16 L 1918.04 1688.85 L 1918.13 1834.26 C 1918.14 1859.1 1918.53 1884.41 1917.74 1909.16 C 1917.15 1927.51 1895.49 1948.77 1877.16 1949.78 C 1850.38 1951.27 1823.33 1950.8 1796.52 1950.77 L 1644.79 1950.65 C 1460.47 1950.74 1272.97 1948.64 1088.97 1950.92 L 1089 1923.04 L 1606.9 1922.96 L 1773.81 1922.45 C 1805.29 1922.44 1836.77 1922.6 1868.26 1922.32 C 1880.56 1922.21 1890.39 1918.98 1890.68 1904.55 C 1891.05 1885.67 1890.73 1866.71 1890.69 1847.82 L 1890.53 1734.35 L 1890.07 1383.02 L 1890.76 205.045 C 1890.85 187.763 1893.11 151.801 1889.63 136.366 C 1889.1 133.981 1887.22 131.741 1885.48 130.089 C 1876.41 121.473 1825.45 125.403 1811.25 125.54 L 672.885 125.984 L 318.466 126.131 L 212.091 125.998 C 198.132 125.945 172.24 124.815 159.36 126.047 C 155.627 131.619 157.668 192.769 157.718 204.206 L 157.991 344.175 L 157.862 777.836 L 157.125 1902.22 C 157.21 1917.19 156.94 1922.37 173.529 1922.5 C 200.112 1922.71 226.698 1922.56 253.283 1922.62 L 416.15 1922.92 L 962.062 1922.98 L 961.904 1950.69 L 421.449 1950.23 L 250.259 1950.1 C 222.86 1950.07 194.916 1950.72 167.548 1949.65 C 158.373 1949.29 148.497 1943.71 141.935 1937.52 C 132.932 1929.03 129.054 1917.14 129.106 1904.96 C 128.83 1875.93 128.938 1846.77 128.849 1817.74 C 128.388 1752.61 128.271 1687.47 128.5 1622.33 L 128.839 877.342 L 128.844 383.416 L 128.889 221.203 C 128.906 193.054 128.719 164.41 129.246 136.247 C 129.416 127.173 133.719 118.093 140.085 111.544 C 145.571 105.938 152.476 101.926 160.064 99.9378 C 172.775 96.5192 222.886 97.5427 238.537 97.4962 z" fill="rgb(252,253,252)" transform="translate(0,0)"></path>
<metadata><recraft-signature>{"signed_by": "recraft", "signature_b64": "25ILzdXOXdBs2W9wR5DUlgM4Vi83tBjt5vqEgvAobD7xIejibFe+dDAQPq/bisYw/oMIEZCOs2MQ29pw9ubQDQ==", "signing_algo": "Ed25519", "generation_timestamp": 1779056767, "identifier": "b0db5bbd-c993-4160-abd8-947a269dd7e7"}</recraft-signature></metadata></svg>