<svg xmlns="http://www.w3.org/2000/svg" height="1024" preserveAspectRatio="none" style="display: block;" version="1.1" viewBox="0 0 2048 2048" width="1024">
<path d="M 0 0 L 2048 0 L 2048 2048 L 0 2048 L 0 0 z" fill="#16a34a" transform="translate(0,0)"></path>
<path d="M 1424.32 214.268 C 1656.53 212.693 1846.1 399.595 1847.8 631.81 C 1849.51 864.026 1662.72 1053.69 1430.5 1055.53 C 1198.1 1057.37 1008.25 870.396 1006.54 637.994 C 1004.83 405.592 1191.92 215.845 1424.32 214.268 z" fill="rgb(254,254,253)" transform="translate(0,0)"></path>
<path d="M 1403.52 251.919 C 1615.19 238.65 1797.54 399.506 1810.79 611.185 C 1824.03 822.865 1663.15 1005.19 1451.47 1018.41 C 1239.83 1031.62 1057.54 870.78 1044.29 659.138 C 1031.05 447.496 1191.88 265.186 1403.52 251.919 z" fill="#16a34a" transform="translate(0,0)"></path>
<path d="M 1362.88 286.002 C 1395.46 285.903 1428.05 285.993 1460.63 286.27 C 1477.69 286.283 1501.19 285.439 1517.69 287.001 L 1459.54 482.187 C 1452.07 508.06 1442.06 537.713 1435.95 563.372 L 1597.25 562.901 C 1588.6 583.374 1577.63 603.177 1567.78 623.167 C 1545.75 668.962 1522.62 714.215 1498.4 758.885 C 1472.04 808.456 1446.88 859.588 1420.5 909.12 C 1413.73 921.28 1388.48 975.746 1380.55 981.226 C 1378.65 982.542 1378.26 982.466 1376.11 982.099 C 1374.73 974.561 1460.46 682.397 1469.55 655.37 L 1271.25 655.179 C 1277.46 625.062 1285.79 594.572 1293.01 564.585 C 1307.73 503.428 1323.69 442.499 1339.14 381.523 C 1347.14 349.952 1356.13 317.821 1362.88 286.002 z" fill="rgb(254,254,253)" transform="translate(0,0)"></path>
<path d="M 327.985 1673.06 C 326.509 1479.64 326.236 1286.2 327.168 1092.77 L 327.3 852.716 C 327.262 808.017 327.024 763.295 327.481 718.609 C 327.585 708.414 330.424 701.375 341.609 700.836 C 354.733 700.203 368.07 700.617 381.213 700.623 L 457.895 700.321 L 583.102 699.998 C 592.74 699.984 655.664 698.88 660.721 701.799 C 663.093 706.067 662.435 721.295 662.489 727.278 L 662.654 1288.84 L 662.838 1465.63 C 662.935 1496.91 664.2 1545.96 661.159 1576.46 C 681.586 1523.97 677.902 1508.54 725.977 1476.82 C 742.344 1465.85 759.524 1456.13 777.367 1447.76 C 766.091 1414.55 766.191 1354.35 766.661 1319.09 C 766.983 1286.91 768.175 1254.75 770.237 1222.64 C 772.254 1193.14 775.369 1163.72 777.43 1134.13 C 782.029 1069.42 784.605 1004.57 785.154 939.699 C 785.26 885.3 788.139 827.257 764.532 776.786 C 748.788 743.126 730.727 736.695 696.353 730.466 C 695.723 736.123 696.626 735.748 693.738 739.71 C 687.489 742.753 680.774 740.719 673.558 739.703 C 672.916 728.916 673.122 718.241 673.194 707.44 C 678.139 707.495 687.995 707.234 692.221 708.531 C 697.02 714.115 700.076 713.236 707.932 714.3 C 729.476 717.219 750.632 723.913 765.109 741.077 C 811.85 797.203 806.814 901.714 805.299 970.787 C 804.135 1019.56 801.693 1068.29 797.976 1116.93 C 790.051 1221.68 775.867 1336.91 793.296 1440.87 C 810.932 1433.94 825.823 1428.33 843.944 1422.81 C 855.736 1419.22 874.124 1415.04 884.728 1410.56 C 924.784 1393.42 965.593 1377.97 1005.65 1360.84 C 1049.16 1342.22 1093.2 1320.57 1138.12 1305.85 C 1192.36 1288.08 1250.95 1277.72 1307.77 1272.72 C 1377.93 1266.53 1450.93 1265.79 1520.33 1279.16 C 1557.47 1286.31 1593.89 1300.51 1628.53 1315.37 C 1673.48 1334.06 1713.97 1359.11 1757.83 1379.47 C 1776.68 1388.27 1795.75 1396.6 1815.02 1404.45 C 1829.28 1410.3 1842.55 1415.35 1856.73 1422.45 C 1883.83 1436.05 1874.38 1455.99 1881.23 1476.58 C 1896.93 1523.79 1906.13 1568 1885.83 1616.1 C 1874.78 1642.27 1855.01 1657.53 1828.43 1667.06 C 1823.01 1669.11 1814.61 1671.72 1808.89 1671.72 L 1804.13 1672.13 L 1799.99 1670.76 C 1798.83 1668.29 1799.25 1667.94 1799.06 1665.35 C 1793.97 1595.59 1736.4 1542.94 1666.4 1546.91 C 1634.46 1548.57 1604.49 1562.86 1583.09 1586.63 C 1558.85 1613.92 1547.52 1654.11 1554.79 1690.01 L 1199.86 1689.22 C 1146.29 1689.1 1089.15 1690.19 1035.96 1689.04 C 1034.75 1647.07 1027.55 1610.1 995.102 1579.68 C 973.028 1558.73 943.428 1547.58 913.016 1548.76 C 857.254 1550.95 814.338 1593.2 807.698 1647.31 C 806.741 1655.11 806.427 1663.07 806.349 1670.91 C 777.795 1671.68 745.371 1674.11 718.121 1665.16 C 690.53 1656.1 670.714 1617.46 662.024 1592.05 C 662.995 1618.64 662.637 1645.5 662.538 1672.12 L 638.517 1672.17 C 637.258 1640.27 638.014 1604.78 638.12 1572.69 L 638.08 1438.85 L 637.385 936.667 L 637.121 800.695 C 637.137 777.46 637.802 750.966 637.135 728.031 C 543.136 728.251 446.229 729.552 352.414 728.168 L 352.783 1280.47 L 353.094 1544.18 C 353.055 1586.07 353.872 1631.47 352.833 1673.12 L 327.985 1673.06 z" fill="rgb(254,254,253)" transform="translate(0,0)"></path>
<path d="M 1344.25 1442.96 C 1312.3 1443.33 1270.49 1447.04 1238.03 1449.09 L 1102.07 1456.61 L 1045.36 1459.9 C 1023.91 1461.11 974.15 1465.84 970.949 1436.65 C 968.692 1416.09 1036.72 1384.33 1051.93 1376.54 C 1174.27 1313.94 1311.07 1295.73 1447.06 1302.52 C 1519.92 1306.19 1599.91 1322.86 1651.48 1377.79 C 1699.18 1428.58 1670.31 1484.68 1623.29 1521.63 C 1610.88 1531.38 1596.09 1545.45 1584.92 1556.95 C 1594.07 1551.37 1605.75 1543.67 1615.06 1539.17 C 1643.31 1525.53 1679.64 1522.22 1710.01 1529.67 C 1743.04 1537.51 1771.51 1558.31 1789.04 1587.37 C 1806.11 1615.79 1808.57 1639.34 1808.89 1671.72 L 1804.13 1672.13 C 1808.15 1641.59 1796.58 1605.61 1778.3 1582.06 C 1730.37 1520.33 1641.93 1518.61 1583.68 1566.58 C 1564.69 1582.21 1545.75 1610.25 1542.96 1635.09 L 1542.75 1637.02 C 1542.11 1642.87 1542.09 1648.71 1537.65 1652.59 C 1525.81 1657.38 1340.8 1660.47 1316.79 1661.13 L 1090.8 1668.03 C 1075.29 1614.16 1043.19 1570.66 993.478 1543.52 C 937.031 1512.71 890.681 1517.25 831.373 1528.03 C 863.278 1510.13 922.492 1512.47 956.986 1522.35 C 1029.31 1543.06 1070.73 1593.9 1096.39 1662.14 C 1128.52 1662.04 1157.65 1660.35 1189.5 1659.14 C 1220.83 1658.05 1252.16 1657.13 1283.49 1656.39 C 1298.49 1655.97 1314.91 1654.93 1329.77 1654.95 C 1316.69 1606.01 1322.07 1555.53 1333.09 1506.99 C 1337.5 1487.57 1342.73 1462.52 1344.25 1442.96 z" fill="#16a34a" transform="translate(0,0)"></path>
<path d="M 1386.71 1307.48 C 1423.03 1307.08 1463.11 1308.43 1499.27 1313.53 C 1552.85 1321.34 1620.77 1346.17 1653.39 1391.3 C 1705.74 1463.7 1618.55 1510.51 1577.4 1555.95 C 1553.28 1582.6 1539.79 1613.19 1534.03 1648.17 C 1528.41 1648.54 1522.67 1648.76 1517.04 1648.88 C 1456.8 1650.17 1396.35 1653.57 1336.14 1654.77 C 1331.86 1640.1 1329.47 1627.29 1328.81 1612.07 C 1322.34 1554.55 1344.47 1499.12 1349.76 1442.41 L 1559.93 1429.02 C 1571.93 1428.29 1651.02 1425.46 1655.67 1422.05 L 1654.94 1420.17 C 1654.26 1419.6 1653.59 1419.03 1652.91 1418.46 C 1569.06 1420.05 1428.47 1433.12 1350.27 1436.19 C 1353.03 1396.41 1357.27 1347.84 1362.14 1308.31 L 1386.71 1307.48 z" fill="rgb(254,254,253)" transform="translate(0,0)"></path>
<path d="M 1405.38 1325.09 C 1445.62 1324.87 1486.76 1323.86 1525.8 1335.69 C 1553.93 1344.2 1585.35 1354.87 1608.5 1373.56 C 1616.43 1379.95 1615.21 1396.27 1615.35 1405.91 C 1608.3 1406.02 1600.83 1406.52 1593.75 1406.87 C 1526.71 1409.35 1460.78 1414.2 1393.87 1417.59 C 1397.05 1386.23 1402.03 1356 1405.38 1325.09 z" fill="#16a34a" transform="translate(0,0)"></path>
<path d="M 1598.6 1443.39 C 1607.18 1442.86 1618.7 1440.15 1621.61 1450.3 C 1618.47 1468.07 1595.81 1469.62 1581.5 1471.06 C 1575.28 1471.94 1567.2 1472.22 1560.79 1472.61 C 1560.24 1466.16 1560.32 1460.24 1560.34 1453.78 C 1573.56 1446.79 1583.82 1445.01 1598.6 1443.39 z" fill="#16a34a" transform="translate(0,0)"></path>
<path d="M 1350.77 1308.44 C 1353.73 1308.24 1352.66 1308.05 1355.42 1309.07 C 1355.9 1313.14 1354.81 1319.33 1354.4 1323.6 C 1350.81 1361.26 1346.4 1398.96 1344.33 1436.74 C 1310 1438.25 1274.78 1441.06 1240.39 1443.17 L 1124.98 1449.64 C 1089.14 1451.82 1051.86 1454.59 1015.97 1455.09 C 1006.07 1455.22 998.02 1453.63 988.878 1449.93 C 979.995 1444.48 970.609 1435.19 981.788 1425.65 C 998.048 1412.04 1017.81 1401.22 1036.44 1391.15 C 1136.84 1336.88 1237.68 1314.56 1350.77 1308.44 z" fill="rgb(254,254,253)" transform="translate(0,0)"></path>
<path d="M 1306 1325.42 L 1309.45 1325.23 C 1309.88 1325.71 1310.32 1326.18 1310.75 1326.65 C 1309.38 1350.25 1305.68 1402.47 1304.88 1422.96 L 1125.43 1432.92 C 1091.27 1434.66 1053.88 1437.17 1019.97 1437 C 1016.5 1435.89 1016.45 1434.99 1015.04 1432.57 C 1014.45 1418.33 1050.7 1401.8 1062.45 1395.19 C 1139.16 1351.99 1219.05 1333.89 1306 1325.42 z" fill="#16a34a" transform="translate(0,0)"></path>
<path d="M 1844 1442.13 C 1845.56 1444.17 1851.46 1467.26 1853.25 1472.21 C 1858.45 1486.61 1865.01 1497.35 1872.7 1510.35 C 1841.11 1531.85 1815.33 1525.55 1784.58 1505.86 C 1775.61 1499.16 1741.21 1472.58 1735.26 1465.82 C 1743.82 1463.29 1755.16 1461.84 1764.07 1460.24 C 1791.44 1455.33 1818.02 1452.69 1844 1442.13 z" fill="#16a34a" transform="translate(0,0)"></path>
<path d="M 794.38 1474.42 C 822.614 1472.02 840.097 1485.9 856.552 1506.79 C 813.396 1509.38 778.074 1513 736.102 1523.08 C 720.807 1527.52 703.023 1531.6 687.421 1535.72 C 689.724 1519.55 690.494 1517.45 698.636 1503.5 L 697.418 1501.23 L 697.92 1500.13 C 716.988 1488.23 771.761 1476.11 794.38 1474.42 z" fill="#16a34a" transform="translate(0,0)"></path>
<path d="M 1288.89 1461.44 C 1290.99 1461.36 1299.52 1460.97 1300.53 1461.66 C 1331.93 1482.98 1264.44 1480.76 1255.75 1481.07 C 1245.78 1481.67 1241.14 1482.74 1236.06 1473.19 C 1235.84 1459.86 1277.79 1461.88 1288.89 1461.44 z" fill="#16a34a" transform="translate(0,0)"></path>
<path d="M 372.136 747.474 C 402.221 746.521 434.532 747.007 464.763 747.01 L 619.676 747.097 L 619.635 1362.46 L 619.845 1561.75 C 619.911 1595.58 621.321 1639.69 619.574 1672.84 C 536.683 1672.44 453.792 1672.46 370.902 1672.9 C 369.678 1635.4 370.881 1590.75 370.921 1552.72 L 370.863 1331.6 L 370.984 756.122 C 371.009 752.762 370.576 750.32 372.136 747.474 z" fill="rgb(254,254,253)" transform="translate(0,0)"></path>
<path d="M 435.322 1036.96 C 475.85 1036.99 514.971 1037.86 555.733 1037.33 C 555.909 1065.09 555.951 1094.85 554.404 1122.62 C 553.742 1134.51 545.654 1147.49 538.016 1156.53 C 526.396 1168.53 512.885 1176.93 495.545 1177.19 C 480.991 1177.44 466.972 1171.71 456.771 1161.32 C 433.877 1138.3 435.587 1114.94 435.455 1085.26 L 435.322 1036.96 z" fill="#16a34a" transform="translate(0,0)"></path>
<path d="M 510.798 1056.91 C 511.552 1062.26 498.462 1094.68 495.715 1102.54 L 514.35 1099.8 C 509.239 1111.3 501.916 1123.22 496.038 1134.52 C 489.684 1146.73 484.043 1158.85 478.206 1171.33 L 477.59 1171.06 C 476.143 1167.39 484.181 1123.98 485.346 1116.72 C 479.338 1117.86 473.743 1118.19 467.665 1118.7 C 479.324 1085.92 483.691 1077.26 510.798 1056.91 z" fill="rgb(254,254,253)" transform="translate(0,0)"></path>
<path d="M 410.422 798.857 L 573.413 798.861 C 574.174 826.528 573.452 855.575 573.019 883.344 C 554.438 884.232 532.661 883.708 513.844 883.73 L 410.928 883.888 L 410.422 798.857 z" fill="#16a34a" transform="translate(0,0)"></path>
<path d="M 452.062 942.92 L 474.553 943.028 C 474.857 966.898 474.641 990.772 473.905 1014.63 L 518.997 1014.95 C 518.292 991.259 518.676 966.751 518.745 942.999 L 540.063 942.997 C 539.403 951.657 538.203 1007.23 539.808 1014.02 L 541.884 1014.79 L 570.652 1015.05 L 570.762 1029.48 C 520.181 1028.96 469.596 1028.87 419.013 1029.19 L 419.111 1014 L 452.174 1014.18 C 451.935 990.427 451.898 966.673 452.062 942.92 z" fill="#16a34a" transform="translate(0,0)"></path>
<path d="M 909.177 1563.76 C 962.597 1558.84 1009.86 1598.24 1014.64 1651.67 C 1019.41 1705.1 979.898 1752.26 926.454 1756.9 C 873.202 1761.53 826.25 1722.19 821.488 1668.95 C 816.726 1615.71 855.95 1568.66 909.177 1563.76 z" fill="rgb(254,254,253)" transform="translate(0,0)"></path>
<path d="M 965.649 1610.63 C 974.978 1618.45 984.482 1636.82 987.236 1648.77 C 978.095 1649.78 968.932 1650.58 959.754 1651.17 L 946.959 1652 C 944.527 1648.73 941.97 1644.75 939.649 1641.33 C 946.872 1633.3 960.219 1619.08 965.649 1610.63 z" fill="#16a34a" transform="translate(0,0)"></path>
<path d="M 920.663 1590.71 C 934.972 1591.99 948.688 1597.03 960.417 1605.33 C 954.526 1610.38 950.515 1614.14 945.069 1619.67 C 940.491 1625.07 935.869 1630.42 931.204 1635.75 L 919.959 1631.75 C 920.024 1618.14 920.659 1604.59 920.663 1590.71 z" fill="#16a34a" transform="translate(0,0)"></path>
<path d="M 867.653 1612.61 C 874.556 1618.48 888.017 1636.78 893.671 1644.64 L 888.124 1652.77 L 875.25 1652.44 L 849.297 1652.23 C 852.985 1634.15 855.865 1626.83 867.653 1612.61 z" fill="#16a34a" transform="translate(0,0)"></path>
<path d="M 932.32 1691.47 C 933.014 1691.77 946.094 1720.33 948.29 1724.16 C 940.458 1727.28 933.411 1729.06 925.215 1730.85 L 911.101 1733.06 L 914.087 1693.68 C 920.92 1693.44 925.722 1693.36 932.32 1691.47 z" fill="#16a34a" transform="translate(0,0)"></path>
<path d="M 909.955 1644.22 C 919.274 1643.35 926.932 1644.07 931.861 1653.34 C 934.086 1657.59 934.531 1662.54 933.098 1667.11 C 931.018 1673.66 927.772 1676.42 921.898 1679.22 C 913.088 1680.29 905.577 1679.18 900.676 1670.9 C 898.043 1666.38 897.469 1660.95 899.099 1655.98 C 901.183 1649.49 904.292 1647.26 909.955 1644.22 z" fill="#16a34a" transform="translate(0,0)"></path>
<path d="M 849.008 1664.22 L 886.704 1664.44 C 888.033 1669.36 889.228 1672.61 891.004 1677.33 L 878.477 1686.55 C 872.033 1691.36 865.518 1696.07 858.935 1700.68 C 852.786 1690.47 848.966 1676.1 849.008 1664.22 z" fill="#16a34a" transform="translate(0,0)"></path>
<path d="M 895.249 1686.05 C 896.905 1687.21 901.669 1691.59 903.445 1693.14 C 902.368 1706.36 901.144 1717.38 900.354 1731.05 C 892.628 1728.49 890.329 1727.02 883.164 1722.99 C 875.773 1718.1 872.023 1714.55 866.022 1708.22 C 872.672 1700.93 886.719 1691.92 895.249 1686.05 z" fill="#16a34a" transform="translate(0,0)"></path>
<path d="M 906.345 1591.08 L 907.801 1591.41 C 909.954 1594.72 909.165 1626.68 909.152 1633 L 900.386 1636.15 C 896.428 1632.28 893.263 1628.35 889.742 1624.11 C 884.654 1617.7 879.669 1611.86 874.312 1605.67 C 884.458 1598.43 894.42 1594.24 906.345 1591.08 z" fill="#16a34a" transform="translate(0,0)"></path>
<path d="M 985.451 1659.46 C 987.06 1659.09 986.51 1659.24 988.339 1659.79 C 990.505 1667 984.242 1683.91 981.591 1691 L 959.251 1680.37 L 945.274 1673.62 L 946.769 1661.21 C 960.149 1661.63 972.22 1660.67 985.451 1659.46 z" fill="#16a34a" transform="translate(0,0)"></path>
<path d="M 940.429 1683.71 C 946.99 1683.98 970.919 1695.87 977.442 1699.49 C 972.834 1704.92 971.052 1706.61 965.649 1711.2 L 954.863 1721.19 C 952.146 1714.04 940.87 1688.45 940.429 1683.71 z" fill="#16a34a" transform="translate(0,0)"></path>
<path d="M 1669.04 1566.23 C 1722.07 1561.87 1768.69 1601.08 1773.5 1654.07 C 1778.3 1707.06 1739.48 1754.01 1686.54 1759.26 C 1632.95 1764.57 1585.31 1725.19 1580.45 1671.57 C 1575.6 1617.94 1615.38 1570.64 1669.04 1566.23 z" fill="rgb(254,254,253)" transform="translate(0,0)"></path>
<path d="M 1635.37 1666.61 C 1638.51 1666.11 1640.28 1665.54 1643.35 1666.4 C 1646.83 1669.35 1648.28 1674.81 1650.34 1679.45 C 1639.57 1685.93 1628.58 1692.06 1617.4 1697.82 C 1616.14 1698.53 1616.91 1698.32 1615 1697.97 C 1610.66 1692.19 1605.16 1676.17 1607.61 1669.42 C 1611.92 1667.88 1629.9 1667.06 1635.37 1666.61 z" fill="#16a34a" transform="translate(0,0)"></path>
<path d="M 1681.96 1691.17 C 1683.83 1691.42 1683.39 1691.46 1685.17 1692.46 C 1689.24 1699.64 1692.91 1721.42 1694.69 1730.39 L 1678.98 1731.95 C 1674.45 1732.05 1669.52 1731.86 1664.95 1731.78 C 1665.16 1722.63 1666.17 1702 1671.7 1695.23 C 1674.56 1691.72 1677.69 1691.76 1681.96 1691.17 z" fill="#16a34a" transform="translate(0,0)"></path>
<path d="M 1657.14 1687.79 C 1659.62 1687.63 1659.45 1687.58 1661.61 1688.81 C 1662.96 1692.55 1656.07 1721.49 1655.06 1729.09 C 1649.48 1726.72 1643.98 1723.88 1638.55 1721.17 C 1631.09 1716.37 1627.27 1713.89 1622.22 1706.29 C 1635.12 1698.1 1643.4 1693.84 1657.14 1687.79 z" fill="#16a34a" transform="translate(0,0)"></path>
<path d="M 1672.47 1644.36 C 1681.48 1641.57 1691.04 1646.62 1693.81 1655.63 C 1696.58 1664.64 1691.51 1674.19 1682.5 1676.95 C 1673.5 1679.7 1663.98 1674.65 1661.22 1665.66 C 1658.45 1656.67 1663.49 1647.14 1672.47 1644.36 z" fill="#16a34a" transform="translate(0,0)"></path>
<path d="M 1661.75 1592.38 C 1673.67 1591.67 1681.17 1591.34 1692.88 1593.41 C 1690.19 1603.98 1686.84 1615.24 1683.89 1625.81 L 1682.92 1628.54 C 1679.75 1631.3 1675.24 1630.32 1670.66 1630.12 C 1668.11 1623.11 1658.79 1599.79 1659.53 1593.71 L 1661.75 1592.38 z" fill="#16a34a" transform="translate(0,0)"></path>
<path d="M 1736.01 1666.58 L 1749.5 1665.67 C 1747.13 1680.62 1744.97 1687.81 1737.62 1700.94 C 1734.29 1698.38 1730.64 1694.92 1727.47 1692.07 C 1722.51 1688.19 1703.05 1677.78 1707.45 1671.01 C 1714.38 1666.83 1727.56 1667.02 1736.01 1666.58 z" fill="#16a34a" transform="translate(0,0)"></path>
<path d="M 1736.09 1624.84 L 1737.27 1625.41 C 1743.12 1636.06 1745.38 1642.93 1748.78 1654.66 C 1738.94 1656 1729.06 1657.06 1719.15 1657.85 L 1709.02 1658.05 C 1708.08 1653.93 1706.71 1649.62 1705.51 1645.54 C 1712.41 1639.96 1728.04 1630.28 1736.09 1624.84 z" fill="#16a34a" transform="translate(0,0)"></path>
<path d="M 1699.85 1683.35 C 1712.36 1689.31 1723.29 1697.28 1734.1 1705.84 C 1730.8 1709.49 1725.83 1713.84 1722.14 1717.27 C 1715.88 1722.15 1712.22 1724.01 1705.14 1727.07 C 1702.36 1717.6 1698.85 1706.83 1697.2 1697.19 C 1695.91 1689.64 1695.96 1688.53 1699.85 1683.35 z" fill="#16a34a" transform="translate(0,0)"></path>
<path d="M 1648.08 1596.84 L 1649.74 1597.6 C 1653.01 1609.08 1657.13 1621.13 1660.83 1632.56 C 1650.88 1638.84 1648.13 1635.92 1638.43 1631.09 C 1632.57 1627.38 1625.99 1622.88 1619.66 1620.3 C 1628.71 1608.84 1635.66 1604.23 1648.08 1596.84 z" fill="#16a34a" transform="translate(0,0)"></path>
<path d="M 1701.27 1596.41 C 1709.29 1600.25 1730.63 1610.08 1732.26 1619.49 C 1724.99 1622.14 1722.49 1623.04 1715.99 1627.22 L 1714.57 1628.14 L 1699.02 1637.27 L 1692.2 1632.04 C 1694.3 1621.57 1698.52 1607.04 1701.27 1596.41 z" fill="#16a34a" transform="translate(0,0)"></path>
<path d="M 1615.56 1626.31 C 1619.54 1628.32 1639.45 1642.65 1647.71 1647.33 C 1646.76 1651.21 1646.65 1652.37 1644.72 1655.77 C 1641.89 1657.86 1638.91 1657.48 1635.25 1657.64 C 1626.64 1658.41 1611.52 1661.8 1606 1654.76 C 1604.32 1646.49 1611.46 1633.68 1615.56 1626.31 z" fill="#16a34a" transform="translate(0,0)"></path>
<path d="M 1016.02 200.317 C 1048.45 197.821 1066.71 218.956 1088.23 239.515 C 1099.33 250.084 1110.31 260.771 1121.17 271.573 C 1113.16 279.421 1105.18 287.491 1096.66 294.78 C 1084.62 283.949 1072.73 272.957 1060.98 261.807 C 1053.27 254.576 1045.47 246.633 1036.88 240.526 C 1026.87 233.411 1016.38 232.309 1007.02 240.988 C 995.996 251.224 985.891 262.282 975.294 272.936 C 953.464 294.819 931.508 316.575 909.427 338.205 L 639.935 604.5 C 629.63 614.91 619.348 625.322 608.858 635.545 C 599.834 644.338 589.762 652.569 581.579 662.061 L 531.593 661.94 C 541.515 651.884 552.922 642.201 563.116 632.184 L 639.435 556.597 L 833.45 364.517 L 938.077 260.271 C 954.583 243.975 972.104 226.727 989.291 211.077 C 995.943 205.021 1007.06 201.72 1016.02 200.317 z" fill="rgb(254,254,253)" transform="translate(0,0)"></path>
<path d="M 272.07 1694.01 L 713.944 1693.81 C 713.943 1713.48 713.449 1733.57 713.172 1753.27 L 272.537 1753.38 C 271.877 1733.79 272.025 1713.64 272.07 1694.01 z" fill="rgb(254,254,253)" transform="translate(0,0)"></path>
<path d="M 1826.99 888.841 C 1830.61 891.732 1840.23 901.837 1843.99 905.587 C 1853.81 915.415 1863.78 925.093 1873.89 934.618 C 1891.07 951.335 1908.14 968.158 1925.11 985.086 C 1944.1 1003.88 1972.66 1026.18 1972.7 1054.8 C 1972.72 1073.69 1961.82 1087.46 1949.15 1100.09 C 1931.17 1118.02 1912.21 1134.9 1894.06 1152.65 C 1837.6 1207.26 1781.56 1262.3 1725.95 1317.77 L 1708.78 1311.96 L 1689.66 1305.78 C 1695.13 1299.33 1702.61 1292.28 1708.81 1286.41 C 1765.14 1233.05 1819.3 1177.02 1875.21 1123.3 L 1915.06 1085.1 C 1923.61 1076.87 1949.52 1057.91 1936.36 1044.78 C 1892.74 1001.24 1844.73 958.321 1803.01 913.115 C 1810.25 904.808 1818.93 896.302 1826.99 888.841 z" fill="rgb(254,254,253)" transform="translate(0,0)"></path>
<path d="M 283.703 828.746 C 285.105 836.934 284.391 869.289 284.007 878.329 L 154.449 1003.79 C 140.831 1017.06 116.298 1037.14 106.754 1052.06 C 102.664 1058.45 154.528 1104.37 161.292 1110.81 L 230.747 1178.19 C 247.108 1193.76 266.669 1210.93 282.01 1226.74 C 282.1 1242.36 281.917 1257.98 281.46 1273.59 L 265.353 1258.66 C 209.129 1204.89 152.518 1151.72 96.1432 1098.1 C 77.1534 1080.04 63.0686 1052.16 81.9496 1028.16 C 103.401 1000.9 131.661 977.824 156.663 953.717 C 199.281 912.336 241.629 870.679 283.703 828.746 z" fill="rgb(254,254,253)" transform="translate(0,0)"></path>
<metadata><recraft-signature>{"signed_by": "recraft", "signature_b64": "fPXqhcjisTUs1t/CJnFD59garD52bE2+iTVoSYSc03RviNlzPIXWqdEjSSpbFFHi+lZ01R8hGECtTmIyAeLYBQ==", "signing_algo": "Ed25519", "generation_timestamp": 1779058361, "identifier": "324e2d89-d68a-483f-ae2a-7e2b87ce3f04"}</recraft-signature></metadata></svg>