<svg xmlns="http://www.w3.org/2000/svg" height="1024" preserveAspectRatio="none" style="display: block;" version="1.1" viewBox="0 0 2048 2048" width="1024">
<defs>
	<linearGradient gradientUnits="userSpaceOnUse" id="Gradient1" x1="1864.47" x2="1849.76" y1="1116.68" y2="1199.6">
		<stop class="stop0" offset="0" stop-color="#16a34a" stop-opacity="1"></stop>
		<stop class="stop1" offset="1" stop-color="#16a34a" stop-opacity="1"></stop>
	</linearGradient>
</defs>
<path d="M 0 0 L 2048 0 L 2048 2048 L 0 2048 L 0 0 z" fill="#16a34a" transform="translate(0,0)"></path>
<path d="M 1687.7 1313.36 C 1693.03 1313.17 1744.82 1329.4 1752.6 1331.73 L 1874.31 1367.82 C 1900.16 1375.4 1926.06 1382.13 1952.2 1390.13 C 1986.05 1400.5 1979 1419.49 1979.89 1448.77 C 1980.36 1464.02 1982.42 1484.43 1971.81 1496.63 C 1968.79 1500.12 1964.96 1502.82 1960.65 1504.47 C 1943.01 1511.27 1919.71 1517.69 1900.96 1524.26 L 1729.78 1584.19 L 1254.11 1753.36 L 1135.48 1795.86 C 1100.43 1808.66 1049.18 1830.9 1013.5 1833.71 C 960.8 1837.85 891.695 1802.52 841.884 1783.83 L 526.37 1663 L 310.956 1582.84 C 267.879 1567.59 224.912 1552.04 182.057 1536.17 C 164.204 1529.69 78.2445 1498.97 67.0258 1489.58 C 63.293 1480.95 64.1425 1425.32 63.975 1412.31 C 64.5274 1411.42 65.0962 1410.55 65.6811 1409.69 C 78.8974 1389.98 98.8008 1386.51 120.09 1379.93 C 138.703 1374.13 157.376 1368.53 176.105 1363.12 C 191.661 1358.64 218.991 1350.06 233.648 1347.23 C 233.897 1353.79 233.897 1360.64 233.991 1367.24 C 205.873 1375.64 176.973 1383.11 148.973 1391.72 C 138.036 1395.08 108.41 1402.2 100.427 1407.64 L 100.3 1409.94 C 105.928 1418.34 160.616 1435.77 174.292 1440.53 C 207.284 1452.26 240.349 1463.78 273.487 1475.09 L 372.98 1510.18 C 388.834 1515.86 404.604 1522.1 420.497 1527.59 C 425.552 1529.34 434.448 1532.13 439.504 1531.03 C 459.118 1526.8 478.534 1520.92 497.785 1515.28 C 524.43 1507.63 550.972 1499.62 577.404 1491.26 C 605.987 1482.28 635.028 1474.68 663.694 1465.93 C 686.61 1458.94 774.298 1429.89 790.772 1431.21 C 802.538 1432.16 826.955 1442.97 839.273 1447.14 L 978.736 1494.51 C 1104 1538.2 1229.71 1580.63 1355.83 1621.78 C 1370.96 1613.54 1393.37 1607.45 1410.47 1601.15 C 1386.36 1594.46 1356.87 1584.06 1332.78 1576.24 C 1267.26 1554.95 1202 1532.84 1137.02 1509.92 L 913.191 1433.1 C 868.196 1417.82 822.445 1404.55 777.974 1387.32 C 768.175 1383.52 759.723 1378.86 750.251 1374.88 C 739.156 1370.22 727.383 1366.08 716.084 1361.85 L 715.972 1346.72 L 810.722 1377.79 C 827.266 1383.3 848.648 1391.33 864.925 1395.86 C 872.61 1393.8 880.953 1391.18 888.498 1388.58 C 917.235 1378.66 961.948 1392.63 984.152 1367.2 C 994.636 1369.41 1002.62 1372.12 1013.81 1374.03 L 952.677 1391.25 C 938.793 1395.17 914.979 1401.38 902.972 1408.21 C 925.322 1416.4 948.78 1423.38 971.408 1431.28 C 1052.23 1459.98 1133.43 1487.64 1214.96 1514.25 C 1289.16 1538.96 1370.65 1568.47 1445.3 1588.9 C 1482.56 1577.24 1525.77 1560.91 1562.63 1547.46 L 1693.5 1500.82 C 1717.49 1492.23 1740.75 1482.98 1764.95 1474.66 C 1717.94 1459.89 1671.5 1443.68 1624.68 1428.4 C 1563.97 1408.58 1498.92 1389.71 1439.04 1368.07 C 1448.28 1366.41 1471.75 1359.18 1477.97 1360.59 C 1497.14 1364.92 1519.37 1372.72 1538.35 1378.84 C 1580.09 1392.25 1621.73 1405.95 1663.27 1419.94 L 1749.23 1447.92 C 1764.89 1453.1 1784.4 1458.81 1798.74 1466.35 C 1849.38 1446.73 1900.5 1428.36 1952.05 1411.26 C 1942.48 1407.36 1923.85 1402.93 1913.06 1399.82 L 1839.39 1378.22 L 1716.49 1341.96 C 1698 1336.54 1664.09 1325.6 1646.59 1322.85 C 1659.53 1319.37 1674.52 1315.35 1687.7 1313.36 z" fill="rgb(254,254,254)" transform="translate(0,0)"></path>
<path d="M 791.442 1452.17 C 793.942 1452.42 817.257 1460.96 821.11 1462.31 C 853.381 1473.62 885.427 1486.45 917.721 1497.67 L 1162.25 1581.43 C 1214.45 1598.97 1266.34 1615.47 1318.28 1633.88 C 1305.93 1638.45 1292.17 1642.52 1279.53 1646.9 L 1171.77 1684.88 L 1088.28 1714.29 C 1057.45 1725.29 1030.61 1738.43 997.223 1737.83 C 964.097 1734.56 934.626 1720.47 903.649 1708.84 L 790.204 1665.63 C 719.071 1638.48 647.632 1612.13 575.901 1586.59 C 538.609 1572.97 504.132 1558.85 466.13 1545.95 C 486.898 1543.75 534.299 1526.5 556.11 1519.97 L 672.93 1485.67 C 711.627 1474.09 752.246 1461.19 791.442 1452.17 z" fill="#16a34a" transform="translate(0,0)"></path>
<path d="M 770.456 1516.31 C 771.975 1516.4 775.268 1516.82 776.518 1517.62 C 812.636 1540.74 845.823 1569.13 881.29 1593.05 C 881.24 1578.27 878.398 1559.68 881.236 1545.2 C 882.185 1540.35 889.985 1538.13 894.404 1541.27 C 944.666 1576.95 994.147 1614.37 1043.07 1651.86 C 1043.37 1652.1 1043.85 1654.22 1043.89 1654.33 C 1044.09 1664.52 1028.73 1664.01 1021.55 1664.27 C 1010.8 1655.8 999.676 1647.68 988.969 1639.18 C 963.624 1619.06 936.223 1601.59 910.805 1581.63 C 911.201 1591.62 918.033 1641.15 907.836 1642.35 C 888.647 1632.44 852.411 1601.45 834.356 1587.49 L 786.432 1549.94 C 779.236 1544.28 760.809 1531.68 757.563 1524.76 C 758.03 1517.33 764.314 1517.08 770.456 1516.31 z" fill="rgb(254,254,254)" transform="translate(0,0)"></path>
<path d="M 1969.68 1423.09 L 1970.89 1424.5 C 1970.92 1506.72 1973.67 1490.34 1898.71 1515.68 L 1783.01 1554.83 C 1742.56 1568.34 1701.58 1583.99 1661.18 1598.09 C 1544.44 1638.62 1428.01 1680.01 1311.88 1722.27 L 1143.9 1783.05 C 1126.78 1789.17 1109.71 1795.43 1092.7 1801.82 C 1063.05 1812.97 1046.91 1820.86 1015.29 1823.18 C 1013.42 1820.18 1014.25 1767.78 1014.22 1758.7 C 1040.54 1755.54 1059.34 1747.19 1083.96 1738.23 L 1138.07 1718.87 L 1333.97 1650 L 1814.58 1478.31 C 1865.94 1459.78 1918.81 1442.82 1969.68 1423.09 z" fill="#16a34a" transform="translate(0,0)"></path>
<path d="M 74.2272 1421.35 C 87.4585 1432.15 113.464 1439 130.136 1444.68 L 190.426 1465.72 C 264.33 1491.78 340.834 1518.76 414.037 1546.16 L 819.024 1698.83 C 862.745 1715.08 906.473 1733.31 950.446 1749.07 C 968.737 1755.62 986.226 1757.38 1005.37 1758.76 L 1004.88 1823.05 C 987.327 1823.15 968.405 1821.61 951.773 1815.8 C 917.8 1803.94 883.833 1789.56 850.171 1776.61 C 782.122 1751.04 714.204 1725.12 646.418 1698.86 C 456.352 1626.97 265.475 1557.24 73.8245 1489.69 C 73.7998 1466.91 73.934 1444.13 74.2272 1421.35 z" fill="#16a34a" transform="translate(0,0)"></path>
<path d="M 679.715 339.505 L 682.073 339.416 C 684.116 343.038 683.036 418.445 683.028 430.372 L 682.95 624.08 L 682.974 1379.59 C 607.198 1401.57 530.443 1422.22 455.223 1445.97 C 454.441 1445.61 453.312 1445.24 453.319 1444.06 C 453.647 1393.57 453.801 1343.08 453.693 1292.59 L 452.699 364.892 L 679.715 339.505 z" fill="rgb(254,254,254)" transform="translate(0,0)"></path>
<path d="M 663.048 380.397 L 665.879 381.249 C 668.046 385.194 666.992 471.361 666.977 482.981 L 666.778 680.961 C 654.282 683.859 636.587 686.33 623.286 688.965 C 573.79 699.075 524.126 708.342 474.316 716.764 C 472.046 714.662 471.935 709.162 471.884 706.111 C 471.249 668.006 471.319 629.788 471.133 591.685 L 470.062 403.573 C 486.621 399.655 521.262 396.46 538.948 394.381 C 580.286 389.467 621.653 384.805 663.048 380.397 z" fill="#16a34a" transform="translate(0,0)"></path>
<path d="M 654.53 392.465 L 656.422 392.746 C 658.654 399.116 656.755 527.751 656.711 542.533 C 599.966 552.174 540.686 559.635 483.227 568.852 C 482.513 568.728 481.881 568.312 481.222 568.013 C 480.158 551.476 480.753 529.522 480.687 512.527 L 480.164 413.016 C 495.939 410.385 515.378 408.51 531.442 406.554 L 654.53 392.465 z" fill="rgb(254,254,254)" transform="translate(0,0)"></path>
<path d="M 603.781 413.403 C 607.036 413.168 608.533 413.293 611.124 415.044 C 614.354 422.204 612.624 517.675 611.91 532.288 C 594.335 536.535 554.175 540.848 534.999 543.345 C 530.576 543.353 529.366 543.449 526.561 540.912 C 524.883 533.3 525.355 509.081 525.333 499.675 L 525.279 424.951 C 539.579 420.853 587.524 415.305 603.781 413.403 z" fill="#16a34a" transform="translate(0,0)"></path>
<path d="M 593.287 426.595 C 596.949 426.119 599.1 425.552 602.711 426.426 C 604.083 434.382 603.687 454.258 603.637 462.808 L 603.039 523.843 C 584.287 526.182 562.734 528.932 544.291 532.228 C 541.064 532.915 537.943 533.697 535.31 532.215 C 534.334 522.51 534.861 507.091 534.88 496.852 L 535.099 434.854 C 550.735 430.901 576.996 428.469 593.287 426.595 z" fill="rgb(254,254,254)" transform="translate(0,0)"></path>
<path d="M 540.397 438.767 C 557.477 436.589 582.058 432.696 598.7 431.824 C 599.592 455.468 600.114 495.647 598.368 518.79 C 589.226 520.367 576.715 523.251 567.994 520.649 L 566.982 519.366 C 569.081 515.029 578.531 511.217 583.355 511.002 L 586.168 512.984 C 593.811 510.667 592.941 495.717 592.994 488.968 C 593.053 481.57 593.692 462.288 590.393 456.472 C 575.806 460.458 566.047 453.196 553.404 464.034 L 552.258 464.156 C 551.992 460.359 551.914 457.257 551.911 453.45 C 558.958 448.669 584.552 453.353 590.141 445.109 L 589.533 443.002 L 587.833 442.121 C 579.895 442.944 557.218 445.132 550.347 447.39 C 548.322 450.556 549.046 450.391 549.023 454.895 C 549.152 475.819 548.958 496.743 548.44 517.661 C 553.223 518.121 558.169 518.082 562.206 520.384 L 562.541 521.961 C 556.968 525.73 547.052 526.394 540.259 527.3 L 540.397 438.767 z" fill="#16a34a" transform="translate(0,0)"></path>
<path d="M 651.71 554.362 C 654.103 553.765 653.956 553.798 656.412 554.107 C 657.574 558.24 657.158 585.612 657.157 591.516 L 657.099 672.297 C 645.13 674.833 631.84 676.751 619.622 679.075 L 487.218 703.994 L 483.172 704.374 C 480.757 701.253 481.893 593.754 481.914 580.659 L 651.71 554.362 z" fill="rgb(254,254,254)" transform="translate(0,0)"></path>
<path d="M 635.268 573.332 C 638.157 572.819 639.347 573.211 641.614 574.871 C 644.037 579.417 643.196 656.973 641.271 663.812 C 636.131 669.114 518.626 689.232 502.219 692.029 C 498.673 692.195 500.275 692.576 497.211 690.956 C 494.233 684.492 495.278 609.619 495.197 596.822 C 505.426 593.617 530.932 590.08 542.272 588.227 L 635.268 573.332 z" fill="#16a34a" transform="translate(0,0)"></path>
<path d="M 627.222 586.409 C 629.998 585.915 629.185 586.03 632.071 586.313 C 634.049 589.64 632.917 648.212 632.853 656.804 C 619.913 660.184 600.481 663.402 586.932 666.02 C 561.836 671.031 536.677 675.715 511.46 680.072 C 509.59 680.275 508.026 680.332 506.15 680.42 C 504.147 677.379 505.328 614.468 505.393 605.465 C 545.915 599.665 586.823 591.406 627.222 586.409 z" fill="rgb(254,254,254)" transform="translate(0,0)"></path>
<path d="M 573.489 765.219 C 585.032 764.16 591.146 764.231 601.92 770.379 C 623.658 782.783 641.224 821.738 646.995 845.417 C 654.877 877.758 663.202 950.356 646.361 981.252 C 643.587 986.34 636.295 993.205 631.247 995.33 C 613.202 1002.93 587.098 1007.53 567.799 1011.97 C 557.167 1014.69 524.427 1025.03 514.722 1019.9 C 493.659 1007.85 494.972 979.944 494.674 959.006 C 493.851 901.23 511.318 787.308 573.489 765.219 z" fill="#16a34a" transform="translate(0,0)"></path>
<path d="M 578.003 785.125 C 611.95 783.164 629.1 830.7 635.523 858.616 C 641.612 885.076 651.452 961.775 627.334 980.811 C 621.986 985.032 577.211 994.571 566.784 996.93 C 527.207 1006.87 509.127 1017.76 508.441 966.525 C 507.73 913.358 515.933 860.665 543.29 814.104 C 551.684 799.817 561.418 789.181 578.003 785.125 z" fill="rgb(254,254,254)" transform="translate(0,0)"></path>
<path d="M 574.446 818.398 C 576.131 818.718 577.524 819.127 579.177 819.572 C 583.229 824.662 575.329 872.847 574.613 883.813 C 586.076 881.987 599.299 878.635 611.367 876.507 C 602.88 903.473 580.292 953.791 567.065 979.305 L 565.763 980.442 L 564.01 980.244 C 559.896 971.52 575.345 918.826 578.544 906.355 C 563.506 908.829 556.294 911.14 541.905 915.813 C 546.046 894.351 565.479 836.878 574.446 818.398 z" fill="#16a34a" transform="translate(0,0)"></path>
<path d="M 256.962 347.614 C 292.679 350.573 331.514 357.805 367.368 362.136 C 383.473 364.082 399.341 367.411 415.645 368.396 L 416.354 1448.87 C 398.139 1441.92 376.762 1435.53 358.009 1429.57 L 265.142 1400.32 L 265.054 1369.13 L 264.929 1307.96 C 264.911 1290.74 263.694 1274.46 269.029 1258 C 270.631 1253.05 271.968 1246.81 273.042 1241.7 C 278.244 1217.36 281.47 1192.64 282.691 1167.79 C 284.481 1117.44 285.218 1067.06 284.903 1016.68 C 284.926 985.609 284.488 953.872 287.066 922.855 C 287.649 915.837 294.505 906.59 298.563 900.21 C 315.392 906.135 346.209 913.867 363.954 917.817 L 364.034 758.872 C 351.842 753.604 302.25 744.144 287.121 741.433 C 285.913 761.434 286.171 792.548 286.551 812.832 C 261.174 816.838 260.708 835.764 258.767 858.089 L 257.613 858.627 C 257.056 844.538 257.435 826.463 257.294 812.021 C 256.978 767.929 256.889 723.836 257.025 679.744 L 256.962 347.614 z" fill="rgb(254,254,254)" transform="translate(0,0)"></path>
<path d="M 1206.56 1168.12 C 1242.41 1144.33 1270 1118.48 1302.35 1091.3 C 1318.04 1078.11 1346.94 1058.31 1363.92 1046.58 C 1430.89 1000.3 1498.35 961.409 1578.63 944.25 C 1581.61 964.698 1583.6 987.457 1585.07 1008.13 C 1586.39 1026.78 1586.23 1045.64 1588.41 1064.3 C 1575.56 1067.34 1468.27 1096.45 1465 1094.13 L 1465.66 1090.14 C 1467.91 1088.3 1559.49 1068.76 1569.77 1063.28 C 1571.87 1062.16 1574.54 1060.66 1574.78 1057.87 C 1576.29 1040.28 1577.54 968.653 1570.45 957.187 C 1564.11 953.715 1544.38 960.71 1537.07 963.264 C 1465.53 988.256 1400.71 1031.53 1342.98 1080.02 C 1333.32 1088.14 1307.3 1108.42 1323.69 1121.43 C 1333.37 1128.52 1360.79 1121.84 1372.46 1119.44 C 1374.27 1143.2 1381.6 1148.12 1386.44 1168.69 C 1387.54 1173.35 1388.24 1201.01 1388.97 1209.09 C 1391.58 1239.66 1395.45 1270.11 1400.57 1300.36 C 1399.99 1301.95 1399.21 1304.38 1398.46 1305.8 C 1389.94 1257.86 1356.64 1200.53 1301.32 1212.1 C 1215.3 1230.09 1201.15 1323.28 1214.22 1394.46 C 1190.72 1396.83 1167.6 1394.5 1144.4 1391.82 C 1082.91 1384.72 1025.92 1369.58 967.281 1350.55 C 949.747 1344.86 913.945 1334.42 899.561 1323.98 C 884.556 1293.26 890.545 1229.57 894.526 1195.63 C 909.529 1206.66 921.973 1218.82 937.338 1202.09 C 963.913 1211.55 990.08 1217.18 1017.09 1223.52 C 1030.23 1226.61 1044.91 1222.81 1049.67 1235.02 C 1051.31 1239.24 1058.41 1240.94 1063 1241.45 C 1110.99 1246.69 1164.86 1250.34 1206.86 1221.96 C 1220.19 1212.84 1227.41 1199.95 1229.91 1184.73 C 1223.29 1175.32 1216.8 1173.21 1206.56 1168.12 z" fill="rgb(254,254,254)" transform="translate(0,0)"></path>
<path d="M 931.662 1261.7 C 939.272 1261.19 956.193 1268.43 964.009 1270.99 C 984.784 1277.79 1005.96 1282.88 1027.08 1288.38 C 1043.58 1292.68 1060.81 1343.87 1050.75 1353.01 C 1045.77 1353.43 1042.16 1352.34 1037.26 1351.33 C 1010.78 1345.64 943.806 1326.55 919.202 1315.23 C 914.082 1295.36 911.655 1274.16 931.662 1261.7 z" fill="#16a34a" transform="translate(0,0)"></path>
<path d="M 935.459 1272.49 C 941.815 1273.92 958.539 1280.94 967.724 1283.43 C 985.815 1288.84 1004.29 1293.12 1022.38 1298.49 C 1035.76 1302.46 1042.44 1328.05 1041.86 1340.41 C 1039.64 1342.08 1039.05 1341.23 1035.23 1340.71 C 998.067 1331.51 963.855 1320.28 927.535 1308.19 C 923.744 1291.18 923.799 1285.99 935.459 1272.49 z" fill="rgb(254,254,254)" transform="translate(0,0)"></path>
<path d="M 1005.46 1056.1 C 1053.44 1007.14 1166.85 941.835 1231.11 917.36 C 1321.58 882.9 1437.28 878.153 1533.53 874.31 C 1544.85 873.936 1575.12 874.828 1585.86 876.391 C 1578.37 879.836 1571.47 882.76 1564.5 887.255 L 1562.84 888.319 C 1562.51 888.539 1562.18 888.759 1561.85 888.979 C 1567.68 889.24 1575.08 889.388 1580.74 890.088 C 1586.02 887.319 1592.26 883.202 1598.2 882.37 C 1622.14 879.02 1730.33 896.237 1756.27 903.48 C 1639.2 901.662 1551.45 903.997 1443.47 955.706 C 1405.11 947.097 1264.48 923.554 1232.18 930.685 C 1190.51 939.882 1145.28 968.628 1109.59 991.205 C 1096.69 999.369 1034.77 1039.49 1033.05 1051.13 C 1032.7 1053.49 1032.8 1054.7 1034.32 1056.53 C 1050.08 1075.56 1207.1 1090.79 1238.61 1092.2 C 1246.44 1092.55 1257.01 1093.24 1264.37 1090.22 C 1279.14 1084.18 1305.45 1060.15 1319.42 1049.23 C 1333.55 1038.2 1347.93 1027.49 1362.56 1017.11 C 1485.84 928.722 1581.66 910.7 1732.9 911.402 C 1745.79 911.462 1781.39 908.762 1792.98 913.477 C 1795.63 914.555 1796.85 928.509 1797.37 932.487 C 1807.07 944.117 1815.7 954.244 1826 965.255 C 1839.06 979.22 1854.73 994.256 1866.59 1009.01 C 1843.45 1021.94 1803.59 1042.55 1853.05 1055.57 C 1867.95 1059.49 1890.31 1067.46 1902.6 1076.34 C 1916.3 1108.34 1929.64 1177.66 1917.09 1210.91 L 1912.57 1221.59 C 1912.1 1207.37 1910.28 1202.38 1906.5 1188.75 C 1893.78 1147.63 1864.08 1116.51 1817.01 1136.58 C 1810.8 1139.23 1805.11 1143.52 1799.04 1146.71 C 1797.96 1149.8 1792.98 1153.98 1790.37 1156.45 C 1785.97 1168.1 1777.62 1179.55 1772.63 1191.31 C 1759.07 1223.25 1756.46 1257.39 1752.71 1291.61 C 1724.69 1299.14 1692.31 1303.06 1662.97 1309.8 C 1570.12 1331.53 1477.08 1352.45 1383.87 1372.56 C 1389.19 1331.5 1388.85 1288.27 1362.89 1253.51 C 1337.75 1219.84 1295.18 1222.28 1264.96 1247.53 C 1235.02 1272.55 1231.25 1290.91 1220.41 1325.59 L 1219.67 1325.51 C 1219.73 1302.69 1238.42 1264.88 1254.01 1248.97 C 1284.93 1217.42 1330.41 1209.19 1362.03 1244.48 C 1387.78 1273.22 1391.01 1308.11 1394.52 1344.46 C 1394.75 1346.89 1395.9 1349.05 1397.77 1350.59 C 1418.01 1347.93 1453.55 1339.1 1474.52 1334.48 C 1517.6 1325.31 1560.61 1315.87 1603.57 1306.17 C 1633.72 1299.4 1664.18 1293.11 1694.23 1286.04 C 1704.81 1283.55 1724.04 1279.2 1733.61 1275.33 C 1745.53 1254.04 1757.43 1209 1767.41 1184.13 C 1784.81 1140.77 1822.22 1074.89 1810.67 1028.21 C 1807.36 1014.83 1775.02 959.177 1765.92 948.092 C 1761.83 943.009 1756.79 938.765 1751.08 935.595 C 1720.8 918.792 1643.65 923.16 1609.08 928.128 C 1585.38 931.619 1561.95 936.763 1538.96 943.524 C 1445.41 971.946 1345.38 1041.34 1271.01 1104.2 C 1231.96 1104.06 1037.05 1089.74 1012 1064.7 C 1009.43 1062.14 1007.45 1059.1 1005.46 1056.1 z" fill="rgb(254,254,254)" transform="translate(0,0)"></path>
<path d="M 1790.37 1156.45 C 1788.03 1132.17 1822.61 1114.76 1843.56 1113.38 C 1881.2 1110.91 1916.34 1147.95 1917.88 1184.37 C 1918.25 1193.16 1917.34 1201.81 1915.82 1210.5 L 1917.09 1210.91 L 1912.57 1221.59 C 1912.1 1207.37 1910.28 1202.38 1906.5 1188.75 C 1893.78 1147.63 1864.08 1116.51 1817.01 1136.58 C 1810.8 1139.23 1805.11 1143.52 1799.04 1146.71 C 1797.96 1149.8 1792.98 1153.98 1790.37 1156.45 z" fill="url(#Gradient1)" transform="translate(0,0)"></path>
<path d="M 1799.04 1146.71 C 1811.34 1125.2 1853.74 1117.82 1873.64 1131.36 C 1891.73 1143.67 1899.48 1158.09 1908.2 1177.37 C 1907.94 1179.82 1907.47 1186.74 1906.5 1188.75 C 1893.78 1147.63 1864.08 1116.51 1817.01 1136.58 C 1810.8 1139.23 1805.11 1143.52 1799.04 1146.71 z" fill="rgb(254,254,254)" transform="translate(0,0)"></path>
<path d="M 1908.2 1177.37 C 1913.74 1195.41 1913 1192.7 1914.24 1210.54 C 1915.55 1210.75 1915.05 1210.91 1915.82 1210.5 L 1917.09 1210.91 L 1912.57 1221.59 C 1912.1 1207.37 1910.28 1202.38 1906.5 1188.75 C 1907.47 1186.74 1907.94 1179.82 1908.2 1177.37 z" fill="#16a34a" transform="translate(0,0)"></path>
<path d="M 1598.2 1072.21 C 1602.38 1072.35 1604.51 1082.4 1605.3 1085.99 C 1615.97 1134.23 1603.43 1184.72 1600.77 1233.32 C 1599.65 1253.85 1595.21 1274.17 1602.04 1294.2 C 1570.6 1301.89 1533.47 1310.19 1502.15 1317.03 C 1489.33 1319.83 1412.88 1338.36 1404.36 1337.99 L 1403.25 1336.58 L 1403.92 1332.79 C 1415.07 1292.11 1401 1252.71 1399.19 1210.89 C 1396.95 1198.07 1399.53 1178.69 1396.56 1166.6 C 1391.65 1146.55 1385.35 1139.37 1384.31 1117.53 C 1405.27 1113.32 1422.05 1114.46 1442.32 1111.64 C 1453.08 1109.25 1463.71 1105.8 1474.5 1103.5 C 1515.95 1094.68 1557.05 1081.71 1598.2 1072.21 z" fill="rgb(254,254,254)" transform="translate(0,0)"></path>
<path d="M 1570.84 1103.35 C 1576.07 1102.91 1581.35 1102.13 1586.3 1103.95 C 1592.98 1106.3 1603.1 1113.65 1597.23 1121.64 C 1589.74 1131.86 1570.65 1134.11 1558.86 1136.8 C 1547.29 1139.4 1520.27 1138.66 1531.86 1117.74 C 1537.06 1108.37 1560.04 1105.02 1570.84 1103.35 z" fill="#16a34a" transform="translate(0,0)"></path>
<path d="M 1574.63 1114.33 C 1578.12 1114.41 1577.99 1114.25 1581.13 1115.66 L 1581.28 1117.39 C 1576.42 1121.41 1559.59 1124.75 1552.7 1126.37 C 1548.93 1127.08 1547.67 1127.88 1544.58 1125.3 L 1545.08 1123.65 C 1551.24 1118.68 1566.72 1115.4 1574.63 1114.33 z" fill="rgb(254,254,254)" transform="translate(0,0)"></path>
<path d="M 1788.99 1008.53 C 1792.7 1010.19 1800.08 1025.92 1800.91 1030.14 C 1809.98 1075.93 1776.34 1133.17 1760.76 1174.44 C 1754.53 1190.9 1748.52 1207.44 1742.72 1224.06 C 1738.06 1237.7 1733.35 1254.22 1726.73 1266.81 C 1714.74 1271.07 1693.01 1275.71 1680.61 1278.33 C 1658.26 1282.83 1635.97 1287.6 1613.74 1292.66 C 1611.45 1290.7 1609.37 1286.58 1609.22 1283.6 C 1606.31 1228.07 1620.31 1172.62 1620.1 1117.07 C 1620.04 1101.02 1615.97 1084.77 1610.86 1069.68 L 1697.68 1045.54 C 1720.81 1039.23 1778.3 1029.15 1788.99 1008.53 z" fill="rgb(254,254,254)" transform="translate(0,0)"></path>
<path d="M 1765.08 1051.33 C 1779.07 1049.3 1789.42 1059.36 1780.69 1071.53 C 1773.84 1081.08 1750.04 1084.43 1739.25 1085.51 C 1731.01 1086.34 1723.53 1083.13 1721.47 1074.48 C 1720.6 1070.93 1721.32 1067.19 1723.42 1064.21 C 1730.24 1054.52 1753 1053.17 1765.08 1051.33 z" fill="#16a34a" transform="translate(0,0)"></path>
<path d="M 1766.5 1062.38 C 1768.4 1062.26 1767.53 1062.28 1769.61 1063.39 L 1770.16 1065.24 C 1766.53 1070.5 1745.57 1073.42 1739.34 1074.51 C 1736.35 1074.14 1737.33 1074.85 1735.7 1073.15 L 1736.74 1071.13 C 1744.74 1065.56 1757 1063.72 1766.5 1062.38 z" fill="rgb(254,254,254)" transform="translate(0,0)"></path>
<path d="M 997.74 1064.94 C 1016.33 1087.73 1049.47 1091.56 1077.24 1095.72 C 1135.17 1104.4 1200.64 1114.16 1258.89 1114.02 C 1237.1 1132.88 1217.04 1147.5 1193.26 1163.73 C 1179.49 1164.52 1164.5 1166.47 1150.85 1168.27 C 1149.81 1168.38 1148.77 1168.51 1147.74 1168.65 C 1105.79 1174.1 1076.7 1183.25 1050.13 1217.74 C 1019.69 1214.35 967.253 1201.87 940.059 1190.02 C 942.314 1172.07 947.751 1133.04 943.588 1117.07 C 954.286 1104.49 984.524 1073.12 997.74 1064.94 z" fill="rgb(254,254,254)" transform="translate(0,0)"></path>
<path d="M 1236.12 959.176 C 1248.05 957.89 1267.78 960.134 1280.15 961.375 C 1302.71 963.459 1325.22 966.172 1347.63 969.511 C 1365.41 972.322 1382.82 976.278 1400.66 978.79 C 1371.2 997.903 1342.47 1018.11 1314.52 1039.36 C 1297.76 1052.14 1279.43 1070.13 1261.42 1080.34 C 1256.86 1082.92 1240.49 1081.5 1234.68 1081.17 C 1218.59 1080.81 1201.26 1078.3 1185.19 1076.73 C 1145.23 1072.83 1107.22 1066.53 1067.89 1058.17 C 1107.84 1023.86 1185.35 973.925 1236.12 959.176 z" fill="rgb(254,254,254)" transform="translate(0,0)"></path>
<path d="M 1299.12 1245.16 C 1373.89 1238.15 1389.32 1335.87 1361.82 1386.59 C 1347.48 1413.03 1337.7 1425.07 1309.18 1435.25 C 1212.01 1450.98 1208.67 1268.56 1299.12 1245.16 z" fill="rgb(254,254,254)" transform="translate(0,0)"></path>
<path d="M 1311.79 1271.38 C 1318.26 1271.56 1324.64 1274.21 1329.74 1278.16 C 1374.34 1312.68 1357.35 1403.08 1299.53 1411.41 C 1240.21 1407.57 1243.07 1290.37 1294.44 1274.2 C 1300.45 1272.31 1305.62 1271.93 1311.79 1271.38 z" fill="#16a34a" transform="translate(0,0)"></path>
<path d="M 1322.42 1279.37 C 1351.97 1291.4 1321.74 1309.73 1315.63 1322.27 C 1315.92 1324.24 1319.44 1330.43 1320.96 1331.31 C 1335.46 1339.78 1352.08 1319.35 1349.93 1349.66 C 1338.13 1347.23 1330.08 1346.34 1318.16 1345.08 C 1315.39 1350.13 1315.4 1351.39 1314.28 1357.19 C 1320.51 1366.81 1328.86 1379.13 1333.46 1389.39 C 1328.41 1393.77 1325.9 1395.21 1320.21 1398.66 C 1315.05 1387.58 1311.51 1377.06 1307.05 1365.8 C 1306.27 1363.83 1304.89 1363.96 1303.64 1363.77 C 1298.1 1367.1 1291.71 1381.35 1288.44 1387.66 C 1287.6 1389.25 1286.73 1390.82 1285.85 1392.38 C 1283.71 1396.07 1283.13 1397.04 1279.57 1398.03 C 1262.82 1390.3 1289.11 1366.67 1290.94 1356.19 C 1291.26 1354.35 1290.79 1351.57 1290.49 1349.71 C 1286.45 1344.36 1268.6 1352.32 1259.79 1346.46 C 1252.74 1329.96 1283.54 1333.36 1290.86 1335.68 L 1292.09 1334.09 C 1293.48 1323.79 1281.01 1306.54 1276.1 1295.46 C 1279.83 1290.12 1281.99 1288.45 1286.77 1284.23 C 1290.28 1290.87 1299.83 1316.75 1306.3 1317.3 C 1311.86 1313.67 1320.66 1286.5 1322.42 1279.37 z" fill="rgb(254,254,254)" transform="translate(0,0)"></path>
<path d="M 1845.01 1145.37 C 1854.16 1145.67 1863.07 1148.36 1870.86 1153.17 C 1912.31 1178.78 1912.41 1262.92 1887.09 1299.6 C 1872.99 1320.01 1861 1329.32 1836.79 1334.43 C 1825.77 1335.31 1815.57 1331.33 1806.62 1324.79 C 1751.78 1284.65 1774.32 1153.84 1845.01 1145.37 z" fill="rgb(254,254,254)" transform="translate(0,0)"></path>
<path d="M 1808.77 1199.35 C 1809.26 1205.06 1809.43 1210.2 1809.61 1215.91 C 1816.61 1222.88 1824.01 1231.14 1833.02 1234.8 C 1825.35 1248.44 1805.36 1265.86 1804.82 1281.54 L 1806.17 1282.64 C 1817.08 1281.18 1829.92 1263.35 1836.28 1254.86 C 1836.09 1265.69 1830.97 1300.35 1840.46 1305.79 C 1844.51 1305.21 1842.8 1305.98 1845.89 1303.68 C 1851.36 1290.01 1845.48 1268.9 1846.22 1252.7 L 1846.31 1250.83 C 1850.65 1258.3 1862.78 1283.69 1872.62 1283.67 C 1886 1270.52 1852.33 1254.7 1856.66 1240.67 C 1857.22 1238.83 1877.56 1234.95 1882.33 1232.65 L 1885.88 1232.68 C 1887.86 1235.38 1886.75 1238.43 1887.08 1242.24 C 1887.01 1252.43 1883.77 1264.25 1880.21 1273.73 C 1865.62 1312.56 1820.18 1327.99 1803.12 1280.41 C 1793.77 1254.32 1797.16 1224.26 1808.77 1199.35 z" fill="#16a34a" transform="translate(0,0)"></path>
<path d="M 1881.68 1217.26 C 1874.22 1218.84 1860.65 1226.36 1854.82 1223.09 C 1851.22 1213.14 1867.01 1198.43 1866.89 1184.54 C 1865.34 1179.81 1859.17 1176.73 1854.29 1177.58 C 1847.03 1183.26 1850.73 1202.78 1847.31 1211.97 C 1844.71 1218.96 1841.58 1220.87 1839.41 1227.64 C 1837.67 1228.61 1837.84 1226.6 1836.52 1224.71 C 1826.85 1210.83 1828.15 1203.65 1811.09 1199.41 C 1810.81 1197.25 1811.43 1195.12 1812.64 1193.3 C 1823.19 1177.43 1846.28 1166.75 1863.92 1177.47 C 1878.11 1186.1 1882.9 1200.34 1886.65 1215.24 C 1884.44 1217.1 1884.58 1216.94 1881.68 1217.26 z" fill="#16a34a" transform="translate(0,0)"></path>
<path d="M 1886.65 1215.24 C 1887.75 1222.92 1888.88 1234.66 1887.08 1242.24 C 1886.75 1238.43 1887.86 1235.38 1885.88 1232.68 L 1882.33 1232.65 L 1881.68 1217.26 C 1884.58 1216.94 1884.44 1217.1 1886.65 1215.24 z" fill="#16a34a" transform="translate(0,0)"></path>
<path d="M 1847.75 1230.4 C 1857.24 1235.91 1849.49 1246.58 1843.34 1251.19 L 1842.53 1249.99 C 1852.95 1236.32 1843.45 1239.63 1847.75 1230.4 z" fill="#16a34a" transform="translate(0,0)"></path>
<path d="M 271.144 842.625 C 274.396 851.622 278.069 856.13 283.534 864.009 C 279.38 885.794 277.636 920.913 276.857 942.962 C 275.639 973.959 275.183 1004.98 275.488 1036 C 275.984 1115.31 280.039 1225.02 244.703 1297.8 C 233.713 1320.44 219.035 1336.88 194.775 1345.15 C 180.024 1350.18 163.454 1351.04 149.237 1343.76 C 136.786 1337.39 129.007 1325.54 125.178 1312.39 C 105.343 1244.27 166.452 1097.3 196.251 1034.77 C 205.989 1014.34 217.168 994.572 228.167 974.796 C 235.458 963.051 242.663 951.253 249.78 939.402 C 249.616 952.345 250.924 967.5 248.083 980.138 C 245.354 992.273 217.242 1039.03 209.592 1055.23 C 186.549 1104.04 126.086 1259.22 144.892 1308.25 C 147.784 1315.79 152.864 1322.11 160.378 1325.38 C 171.373 1330.17 186.519 1327.8 197.239 1323.06 C 215.646 1314.91 228.235 1297.33 235.508 1279.11 C 258.74 1220.94 254.591 1124.19 255.284 1061.05 C 255.997 1020.02 257.115 979.003 258.639 937.998 C 259.951 908.272 260.574 870.092 271.144 842.625 z" fill="rgb(254,254,254)" transform="translate(0,0)"></path>
<path d="M 1671.49 933.46 C 1693.02 933.221 1717.65 934.542 1738.26 940.553 C 1758.77 946.532 1774.45 979.3 1783.31 997.814 C 1775.02 1020.93 1702.3 1034.02 1679.22 1040.22 C 1653.93 1045.77 1624.67 1055.75 1597.92 1061.98 C 1596.36 1021.75 1593.64 981.564 1589.78 941.483 C 1618.69 936.731 1642.39 934.96 1671.49 933.46 z" fill="rgb(254,254,254)" transform="translate(0,0)"></path>
<path d="M 1649.08 942.5 C 1676.28 940.929 1712.62 940.633 1738.41 949.673 C 1756.09 956.591 1765.82 974.538 1773.14 990.824 C 1778.28 1001.14 1770.27 1007.37 1761.25 1011.18 C 1743.43 1018.69 1723.33 1024.18 1704.72 1029.27 C 1677.15 1036.9 1636.67 1049.36 1609.42 1053.27 C 1607.77 1046.27 1599.75 955.348 1601.33 950.425 C 1602.95 945.373 1638.39 943.196 1649.08 942.5 z" fill="#16a34a" transform="translate(0,0)"></path>
<path d="M 1651.97 953.5 C 1675.06 951.434 1715.31 951.621 1736.22 960.897 C 1748.89 966.52 1759.49 984.531 1763.86 997.693 C 1750.64 1007.44 1717.12 1015.14 1699.82 1019.84 L 1618.16 1041.63 C 1615.17 1014.45 1613.67 985.728 1610.61 957.469 C 1625.1 955.804 1637.39 954.575 1651.97 953.5 z" fill="rgb(254,254,254)" transform="translate(0,0)"></path>
<path d="M 433.521 366.447 C 436.391 366.312 437.697 366.41 440.511 366.607 L 441.709 368.007 C 442.842 377.889 442.114 398.066 442.108 409.141 L 442.185 488.452 L 442.26 754.927 L 442.931 1286.52 L 442.984 1401.3 C 442.989 1408.17 443.51 1443.73 442.271 1448.68 C 438.952 1451.52 438.4 1450.8 433.42 1451.81 C 430.469 1452.63 430.601 1452.62 427.54 1452.49 C 426.508 1447.13 426.951 1424.65 426.951 1417.79 L 426.964 1344.4 L 426.988 1056.72 L 426.792 582.606 L 426.77 436.256 C 426.78 420.561 425.666 382.277 427.138 368.211 C 429.33 366.371 430.113 366.881 433.521 366.447 z" fill="rgb(254,254,254)" transform="translate(0,0)"></path>
<path d="M 404.95 265.577 C 440.534 262.95 479.036 266.238 514.389 269.723 C 534.075 271.664 554.945 273.133 574.452 275.923 C 519.754 282.528 463.282 292.909 418.976 328.275 C 412.428 333.501 400.863 355.772 399.97 356.288 C 363.446 349.95 322.931 346.311 286.027 340.414 C 270.3 337.901 249.796 336.959 234.735 333.506 C 231.448 328.294 234.672 319.794 238.609 315.789 C 277.471 276.259 353.119 269.732 404.95 265.577 z" fill="rgb(254,254,254)" transform="translate(0,0)"></path>
<path d="M 703.8 337.399 L 705.288 337.613 C 707.899 342.024 706.324 494.598 706.282 509.292 L 705.964 1107.08 L 705.294 1295.95 L 705.17 1348.87 C 705.193 1355.61 706.103 1366.67 705.427 1372.52 C 702.71 1375.46 700.617 1375.21 696.232 1376.39 L 694.444 1376.32 C 692.837 1373.9 692.986 1371.1 693.006 1368.12 C 693.279 1328.24 693.131 1288.25 693.143 1248.37 L 693.11 1008.94 L 692.955 338.245 L 703.8 337.399 z" fill="rgb(254,254,254)" transform="translate(0,0)"></path>
<path d="M 602.184 283.428 C 625.148 282.331 648.166 284.612 670.589 289.634 C 681.831 292.152 723.297 305.709 718.44 321.564 C 716.686 323.567 715.138 324.1 712.493 324.421 C 688.331 327.35 663.798 329.903 639.632 332.562 L 518.846 346.399 C 486.257 349.904 441.87 356.615 410.311 357.502 C 433.935 302.169 548.256 287.233 602.184 283.428 z" fill="rgb(254,254,254)" transform="translate(0,0)"></path>
<path d="M 1559.77 968.221 L 1561.76 968.463 C 1566.43 976.676 1565.33 1043.54 1565.07 1055.17 C 1532.95 1062.71 1500.64 1071.58 1468.39 1078.36 C 1464.29 1067.94 1456.16 1060.55 1444.64 1059.3 C 1422.76 1056.92 1396.19 1057.31 1377.41 1070.15 C 1369.31 1077.9 1367.34 1079.66 1357.33 1084.05 C 1405.33 1038.05 1494.47 985.15 1559.77 968.221 z" fill="rgb(254,254,254)" transform="translate(0,0)"></path>
<path d="M 749.983 1391.17 C 751.301 1391.03 755.018 1390.7 755.629 1391.87 C 758.681 1397.71 757.145 1409.9 756.976 1416.33 C 737.42 1422.91 709.86 1429.57 689.427 1435.45 L 532.613 1481.34 C 502.049 1490.26 466.602 1499.4 436.798 1509.94 C 434.435 1510.64 435.282 1510.48 432.782 1510.4 C 429.673 1506.18 431.884 1490.33 432.384 1484.27 C 442.663 1480.02 457.297 1476.46 468.095 1472.89 C 496.103 1463.61 524.168 1455.85 552.474 1447.77 L 749.983 1391.17 z" fill="rgb(254,254,254)" transform="translate(0,0)"></path>
<path d="M 181.255 1402.52 L 422.306 1483.53 L 421.783 1512.71 C 400.245 1504.05 370.915 1496.49 348.151 1488.13 C 293.011 1467.88 236.75 1449.99 181.486 1430.12 C 181.1 1420.98 181.234 1411.68 181.255 1402.52 z" fill="rgb(254,254,254)" transform="translate(0,0)"></path>
<path d="M 296.746 754.633 C 312.534 756.645 338.584 762.37 353.817 766.562 C 354.584 811.421 353.739 858.33 353.944 903.501 C 342.4 901.315 331.215 898.62 319.785 895.934 C 315.857 894.468 313.253 893.829 310.489 890.815 C 310.406 877.212 369.204 841.026 338.023 820.011 C 324.837 811.124 324.225 816.796 310.962 818.173 C 309.788 818.295 298.742 814.147 296.615 813.367 L 296.746 754.633 z" fill="rgb(254,254,254)" transform="translate(0,0)"></path>
<path d="M 716.336 1370.69 C 725.782 1374.52 735.166 1378.5 744.485 1382.63 C 688.163 1399.08 629.233 1413.92 572.523 1430.23 C 526.638 1443.43 472.66 1462 426.87 1472.17 L 207.087 1398.25 C 202.703 1396.5 195.803 1394.42 191.153 1392.85 C 204.588 1388.09 220.273 1383.33 233.992 1379.51 C 233.774 1387.46 233.706 1394.21 233.985 1402.14 C 240.655 1405.31 253.441 1408.83 260.805 1411.08 C 276.652 1415.84 292.475 1420.69 308.273 1425.62 C 348.351 1438.23 389.624 1453.12 429.231 1465.14 C 478.05 1452.61 528.954 1435.09 577.946 1421.48 C 617.096 1409.68 656.683 1399.39 696.039 1388.35 C 707.751 1385.06 715.313 1383.67 716.336 1370.69 z" fill="rgb(254,254,254)" transform="translate(0,0)"></path>
<path d="M 880.343 1240.15 L 881.617 1241.03 C 882.397 1245.62 881.892 1257.15 881.797 1262.36 C 829.543 1277.45 767.094 1291.83 716.823 1309.46 L 715.72 1308.8 C 714.79 1304.65 715.438 1291.9 715.565 1286.92 C 766.574 1270.01 827.655 1255.64 880.343 1240.15 z" fill="rgb(254,254,254)" transform="translate(0,0)"></path>
<path d="M 1119.67 1186.26 C 1148.84 1184.09 1160.37 1203.86 1165.56 1228.89 C 1143.87 1233.37 1126.94 1234.04 1105.1 1234.03 C 1092.15 1233.62 1077.75 1232.76 1064.81 1231.42 C 1060.96 1231.02 1060.39 1230.63 1058.74 1228.29 C 1058.66 1226 1058.79 1224.27 1060.35 1222.41 C 1075.32 1204.56 1096.72 1189.74 1119.67 1186.26 z" fill="rgb(254,254,254)" transform="translate(0,0)"></path>
<path d="M 1235.26 940.209 C 1264.52 937.156 1399.89 956.295 1427.94 963.994 C 1423.76 966.992 1420.8 968.479 1416.3 970.876 C 1383.73 962.619 1263.95 943.858 1233.28 949.338 C 1214.7 952.659 1196.33 962.671 1179.62 971.269 C 1134.07 993.725 1095.74 1023.29 1056.12 1054.19 C 1054.61 1055.37 1048.03 1053.45 1046.27 1052.52 L 1045.95 1050.93 C 1048.28 1047.34 1061.73 1037.76 1065.74 1034.66 C 1106.28 1003.26 1186.46 951.918 1235.26 940.209 z" fill="rgb(254,254,254)" transform="translate(0,0)"></path>
<path d="M 1425.27 1068.47 C 1434.71 1068.18 1445.67 1067.99 1453.38 1074.23 C 1460.52 1080 1459.52 1088.41 1453.41 1094.5 C 1444.84 1103.04 1431.99 1102.8 1420.75 1103.23 C 1415.87 1103.41 1412 1103.59 1407.11 1104.12 C 1390.28 1094.25 1388.58 1092.06 1395.21 1073.4 C 1407.74 1069.34 1411.83 1069.18 1425.27 1068.47 z" fill="rgb(254,254,254)" transform="translate(0,0)"></path>
<path d="M 1181.83 1175.41 C 1198.13 1173.92 1204.58 1179.53 1219.21 1187.21 C 1212.08 1205.56 1201.87 1212.49 1185.28 1220.96 C 1182.5 1222.28 1180.22 1223.8 1177.26 1223.58 C 1170.49 1199.64 1169.71 1194.52 1146.89 1180.53 C 1158.5 1178.59 1170.15 1176.89 1181.83 1175.41 z" fill="rgb(254,254,254)" transform="translate(0,0)"></path>
<path d="M 1874.93 1014.89 C 1882.85 1019.37 1904.07 1022.27 1904.79 1032.28 C 1905.46 1041.67 1905.22 1056.36 1905.23 1066.04 C 1896.77 1060.92 1891.18 1057.75 1882.25 1053.58 C 1875.62 1050.93 1845.05 1041.24 1843.1 1038.33 C 1844.65 1033.31 1868.28 1019.35 1874.93 1014.89 z" fill="rgb(254,254,254)" transform="translate(0,0)"></path>
<path d="M 932.632 1126.96 C 936.291 1140.99 931.247 1186.54 925.962 1201.29 C 920.696 1198.73 915.424 1196.03 910.183 1193.4 C 904.545 1189.69 899.864 1185.35 900.612 1178.11 C 902.391 1160.85 920.975 1138.35 932.632 1126.96 z" fill="rgb(254,254,254)" transform="translate(0,0)"></path>
<path d="M 285.615 819.18 C 291.8 819.108 297.308 819.952 303.433 820.692 C 302.492 838.104 301.812 857.258 299.909 874.593 C 299.3 880.142 294.599 889.211 289.713 892.542 L 288.066 891.654 C 288.706 884.909 289.324 879.292 290.404 872.614 C 293.045 870.015 296.617 867.039 299.451 864.533 C 291.374 855.242 266.435 828.423 285.615 819.18 z" fill="rgb(254,254,254)" transform="translate(0,0)"></path>
<path d="M 253.69 1301.82 L 254.429 1302.65 C 255.388 1310.93 255.374 1391.52 253.879 1396.5 C 250.688 1397.47 249.766 1396.81 246.196 1396.18 L 244.621 1394.59 C 243.584 1389.26 244.149 1373.55 244.152 1367.48 C 244.039 1350.45 244.07 1333.4 244.245 1316.37 L 253.69 1301.82 z" fill="rgb(254,254,254)" transform="translate(0,0)"></path>
<path d="M 312.966 823.818 C 328.527 824.414 340.854 824.722 335.612 844.086 C 334.183 840.725 334.009 840.448 331.922 837.436 L 330.329 837.346 C 328.598 839.681 328.829 847.995 326.213 854.489 C 322.95 858.945 315.53 866.56 311.64 870.743 C 312.053 858.094 311.855 835.625 312.966 823.818 z" fill="rgb(254,254,254)" transform="translate(0,0)"></path>
<path d="M 1378.35 1080.72 C 1379.92 1083.19 1380.54 1095.8 1381.35 1100.73 C 1385.2 1102.31 1388.88 1104.26 1392.6 1106.13 C 1372.49 1109.4 1352.29 1112.13 1332.03 1114.31 L 1329.86 1112.52 C 1329.06 1108.99 1329.03 1110.76 1330.42 1107.07 C 1338.74 1100.57 1371.77 1110.27 1379.36 1100.28 C 1378.17 1096.72 1375.41 1095.48 1372.04 1092.96 C 1373.4 1088.43 1375.91 1084.81 1378.35 1080.72 z" fill="rgb(254,254,254)" transform="translate(0,0)"></path>
<path d="M 1400.57 1300.36 C 1401.05 1305.97 1401.5 1312.39 1400.81 1317.98 L 1399.29 1316.48 L 1400.58 1318.99 L 1400.07 1319.47 L 1399.28 1316.58 L 1400.44 1319.19 L 1400.76 1317.87 C 1398.24 1314.86 1398.7 1310.45 1398.46 1305.8 C 1399.21 1304.38 1399.99 1301.95 1400.57 1300.36 z" fill="#16a34a" transform="translate(0,0)"></path>
<metadata><recraft-signature>{"signed_by": "recraft", "signature_b64": "Z2o+HPIqEuDx+1zdHwvk6+W7RbwbjsjJ5iLUgugZwKzgs9rQaLDPahYND4kuIcruNW+0f8mRqthY4AaDeENtDw==", "signing_algo": "Ed25519", "generation_timestamp": 1779057541, "identifier": "09a71a6f-b224-4f93-b30b-d3153fb3b14b"}</recraft-signature></metadata></svg>