<svg xmlns="http://www.w3.org/2000/svg" height="1024" preserveAspectRatio="none" style="display: block;" version="1.1" viewBox="0 0 2048 2048" width="1024">
<path d="M 0 0 L 2048 0 L 2048 2048 L 0 2048 L 0 0 z" fill="#16a34a" transform="translate(0,0)"></path>
<path d="M 809.417 207.251 C 818.186 206.567 826.631 206.973 835.076 209.626 C 869.994 220.597 904.095 234.509 938.763 246.199 C 997.972 266.248 1056.91 287.083 1115.57 308.698 C 1147.62 320.159 1180.32 330.604 1212.06 342.804 C 1216.95 344.683 1226.63 348.007 1229.94 352.024 C 1240.66 365.005 1236.29 422.356 1236.1 440.506 C 1222.65 439.098 1190.39 429.896 1176.06 426.175 L 1176.45 1174.4 C 1204.85 1180.27 1223.65 1187.11 1250.19 1201.75 C 1306.89 1232.35 1369.45 1297.33 1435.86 1301.64 C 1510.64 1306.49 1510.49 1205.09 1510.49 1155.78 L 1510.33 1078.87 L 1510.74 842.108 C 1493.12 841.489 1428.79 841.402 1416.5 833.912 C 1408.63 829.117 1404.67 817.825 1403.04 809.198 C 1399.72 791.631 1401.81 771.126 1401.9 753.185 L 1402.14 649.984 L 1402.06 417.086 C 1402.11 377.196 1401.84 337.079 1402.66 297.36 C 1403.11 275.194 1413.33 268.073 1433.23 275.805 C 1464.81 288.071 1496.17 301.266 1527.56 313.928 C 1560.15 327.072 1592.86 339.404 1625.17 353.169 C 1643.62 361.085 1648.87 374.059 1648.86 393.213 C 1648.83 420.27 1648.66 447.297 1648.68 474.337 L 1648.65 662.497 L 1648.85 765.84 C 1648.91 783.863 1649.27 802.102 1648.6 820.081 C 1648.41 825.43 1646.04 835.349 1642.53 839.257 C 1634.64 848.04 1620.03 847.153 1609.72 846.489 C 1587.02 845.027 1564.48 843.146 1541.83 842.546 C 1542.8 919.63 1543.05 996.722 1542.59 1073.81 C 1542.49 1116.9 1543.02 1160.87 1540.95 1203.86 C 1539.51 1237.37 1526.07 1289.33 1498.57 1311.55 C 1429.99 1366.93 1340.03 1300.43 1283.05 1259.37 C 1250.64 1236.01 1216.66 1209.35 1176.84 1206.59 C 1175.89 1235.65 1176.65 1268.61 1176.65 1297.97 C 1223.41 1305.61 1272.35 1315.32 1319.28 1323.66 L 1501.22 1354.95 L 2007.15 1446.54 C 1987.71 1457.7 1949.73 1473.65 1928.6 1483.21 L 1799.02 1543.17 L 1507 1681.05 C 1401.78 1728.55 1296.93 1776.82 1192.43 1825.87 C 1122.01 1806.01 1044.62 1779.22 974.718 1756.71 L 708.61 1673.52 L 271.856 1538.71 C 193.017 1515.27 114.318 1491.35 35.7629 1466.97 C 41.6604 1464.91 47.8365 1463.44 53.8057 1461.59 C 98.2246 1447.79 143.182 1436.2 187.926 1423.59 L 518.685 1330.21 C 516.44 1305.54 517.994 1256.33 518.034 1230.11 L 518.175 1038.41 L 517.908 397.212 C 501.669 400.654 482.606 407.507 466.682 410.365 C 456.988 412.104 458.745 378.691 458.743 372.373 L 458.766 325.27 C 471.738 319.172 503.192 310.02 518.125 304.9 L 661.165 256.548 L 751.593 225.411 C 767.941 219.737 793.321 209.941 809.417 207.251 z" fill="rgb(252,252,251)" transform="translate(0,0)"></path>
<path d="M 806.997 219.241 C 815.993 218.786 824.442 219.047 833.167 221.595 C 872.301 233.028 913.337 250.158 952.183 263.897 C 985.212 275.578 1212.43 352.153 1221.84 360.252 C 1229.15 366.54 1226.04 416.104 1225.94 427.99 C 1205.65 421.375 1186.56 416.944 1165.73 412.582 C 1164.17 529.714 1165.94 650.09 1165.95 767.527 L 1166.18 1399.9 C 1188.2 1404.21 1210.71 1407.88 1232.63 1412.57 C 1238.49 1413.82 1245.29 1416.72 1248.46 1422.16 C 1249.69 1431.52 1244.39 1433.35 1236.89 1435.84 C 1220.73 1441.19 1204.3 1445.81 1188 1450.74 L 1098.1 1477.95 C 1021.9 1500.65 945.951 1524.16 870.258 1548.49 C 827.732 1562.09 821.431 1558.61 779.874 1546.47 L 698.553 1522.05 C 619.835 1499.26 540.723 1476.99 461.975 1454.28 C 454.786 1452.21 440.715 1449.87 437.298 1442.99 C 440.588 1439 520.969 1417.94 531.919 1415.23 L 531.989 775.3 L 531.872 523.366 C 531.685 477.611 532.013 427.705 530.265 382.189 C 514.234 386.232 498.06 391.657 481.939 395.39 C 478.589 396.165 476.08 395.985 473.244 394.024 C 468.818 387.306 470.995 345.528 470.983 334.235 C 483.114 327.829 519.538 316.265 533.593 311.503 L 665.882 267.405 C 701.247 255.471 736.736 243.899 771.722 230.899 C 782.784 226.79 795.579 221.945 806.997 219.241 z" fill="#16a34a" transform="translate(0,0)"></path>
<path d="M 822.454 316.618 C 839.714 318.109 871.163 331.145 889.56 336.669 L 1073.88 392.023 C 1085.99 395.562 1139.74 409.182 1147.11 414.782 C 1151.49 428.522 1150.13 505.432 1150.16 524.236 L 1150.23 735.124 L 1152.19 1405.98 C 1128.65 1413.39 1103.28 1419.94 1079.37 1427.04 C 1024.86 1442.02 970.477 1457.47 916.231 1473.39 C 885.101 1482.35 853.675 1492.67 822.078 1499.31 C 824.189 1405.27 822.754 1308.28 822.782 1213.98 L 822.906 592.877 L 822.911 398.755 C 822.881 371.579 822.044 343.612 822.454 316.618 z" fill="rgb(252,252,251)" transform="translate(0,0)"></path>
<path d="M 853.491 340.948 C 862.351 341.017 898.686 352.468 909.815 355.768 L 1003.54 383.608 C 1041.48 394.758 1079.8 405.085 1117.78 416.109 C 1123.45 417.754 1129.03 420.061 1134.31 422.71 C 1138.25 428.887 1139.02 433.149 1139.04 440.41 C 1139.07 460.146 1139.05 479.881 1139.03 499.617 L 1138.96 632.444 L 1138.83 1177.72 L 1138.85 1317.09 C 1138.85 1330.14 1139.65 1372.1 1137.52 1382.91 C 1131.3 1387.7 1079.16 1399.65 1067.36 1402.7 L 927.675 1440.3 C 904.132 1446.6 876.36 1454.75 852.789 1459.88 C 842.757 1454.82 838.101 1451.3 837.945 1439.25 C 837.6 1412.57 837.854 1385.85 837.912 1359.16 L 838.037 1203.12 L 838.005 541.561 L 838.029 415.635 C 837.927 397.691 836.294 373.076 838.43 355.266 C 839.207 348.783 848.069 344.009 853.491 340.948 z" fill="#16a34a" transform="translate(0,0)"></path>
<path d="M 854.686 357.877 C 871.127 359.351 912.791 372.31 930.272 377.586 L 1029.12 406.903 C 1048.66 412.534 1068.24 417.995 1087.86 423.288 C 1099.52 426.452 1113.69 429.841 1124.82 434.01 C 1125.99 477.863 1125.03 526.707 1125.01 570.898 L 1124.99 807.538 L 1124.87 1373.21 L 1067.76 1387.69 L 937.376 1422.85 C 912.629 1429.5 876.775 1439.84 852.167 1443.6 C 850.835 1385.51 852.088 1320.07 852.271 1261.41 L 852.842 947.348 L 852.156 500.932 C 852.201 479.604 849.432 371.129 854.686 357.877 z" fill="rgb(252,252,251)" transform="translate(0,0)"></path>
<path d="M 880.841 422.599 C 883.924 422.524 887.003 422.861 889.997 423.6 C 911.37 428.819 1096.64 477.527 1101.65 481.061 C 1103.06 482.063 1103.34 486.176 1103.59 487.805 C 1105.53 500.52 1104.43 514.251 1104.37 527.104 L 1104.17 592.038 L 1104.24 679.166 C 1104.26 694.836 1104.46 710.855 1103.95 726.523 C 1103.84 729.975 1102.99 731.375 1101.04 734.077 C 1091.93 733.949 1073.53 731.357 1064.01 730.262 L 990.476 721.594 L 923.595 713.184 C 911.781 711.774 892.685 710.265 881.833 707.802 C 879.812 706.097 877.699 704.658 877.43 701.97 C 876.321 690.921 876.757 678.101 876.794 667.034 L 876.954 596.357 L 876.778 487.254 C 876.75 468.639 876.562 449.645 877.034 431.016 C 877.12 427.626 878.942 425.396 880.841 422.599 z" fill="#16a34a" transform="translate(0,0)"></path>
<path d="M 994.628 942.4 C 1013.52 940.206 1039.48 949.519 1054.63 960.531 C 1126.96 1013.11 1119.59 1145.42 1053.33 1199.95 C 1035.68 1214.47 1021.55 1219.9 999.176 1223.02 C 974.345 1223.68 959.444 1219.93 938.581 1205.75 C 845.834 1142.72 876.043 953.643 994.628 942.4 z" fill="#16a34a" transform="translate(0,0)"></path>
<path d="M 1028.53 978.19 C 1115.14 1019.37 1096.59 1186.94 995.025 1194.56 C 985.593 1195.27 976.181 1192.37 967.526 1189.03 L 959.967 1185.96 C 968.209 1174.22 976.025 1160.93 983.364 1148.56 C 1004.19 1113.44 1026.46 1078.35 1046.86 1043.05 C 1031.03 1045.71 1015.18 1048.22 999.301 1050.6 C 1007.83 1026.18 1019.82 1002.98 1028.53 978.19 z" fill="rgb(252,252,251)" transform="translate(0,0)"></path>
<path d="M 999.428 971.463 L 1000.27 971.563 C 1001.55 975.436 954.135 1072.56 948.783 1085.65 C 964.579 1082.62 980.401 1079.74 996.247 1076.99 C 979.91 1101.96 963.785 1131.64 949.13 1157.62 C 945.944 1162.92 943.219 1168.42 940.387 1173.91 C 896.351 1130.28 898.138 1048.78 936.775 1002.55 C 953.925 982.029 973.442 973.913 999.428 971.463 z" fill="rgb(252,252,251)" transform="translate(0,0)"></path>
<path d="M 935.797 768.981 C 943.006 768.982 952.624 769.698 966.061 771.951 C 985.343 775.184 1044.03 776.851 1059.64 783.873 C 1063.43 789.902 1062.2 816.74 1061.76 822.017 C 1060.64 835.358 1067.19 858.655 1055.7 865.932 C 1025 866.197 993.177 863.19 962.458 863.128 C 949.617 863.102 928.509 865.587 928.781 848.298 C 928.975 835.973 928.244 822.34 928.99 810.092 C 929.827 796.344 923.454 777.62 935.797 768.981 z" fill="#16a34a" transform="translate(0,0)"></path>
<path d="M 941 829.014 C 956.523 829.51 1043.99 833.333 1050.3 837.106 C 1052.03 840.466 1051.5 839.364 1051.01 843.783 C 1038.55 843.513 945.909 838.98 941.08 836.129 C 939.725 832.848 940.343 833.17 941 829.014 z" fill="rgb(252,252,251)" transform="translate(0,0)"></path>
<path d="M 939.37 808.825 C 951.592 808.781 1041.11 813.495 1049.17 816.17 C 1050.06 819.014 1049.42 819.338 1048.69 822.695 C 1038.78 823.974 949.345 818.47 940.821 815.887 C 938.767 812.955 939.478 813.169 939.37 808.825 z" fill="rgb(252,252,251)" transform="translate(0,0)"></path>
<path d="M 778.23 321.154 L 778.817 321.597 C 782.4 329.59 779.297 748.098 779.221 797.378 L 778.946 1488.65 C 719.286 1471.18 659.182 1455 599.256 1438.25 C 581.476 1433.41 562.921 1428.64 545.685 1422.25 C 544.693 1373.55 545.822 1321.41 545.875 1272.39 L 545.864 1008.87 L 546.168 391.494 C 577.056 383.59 611.591 371.978 642.159 362.349 C 687.298 347.909 732.661 334.176 778.23 321.154 z" fill="rgb(252,252,251)" transform="translate(0,0)"></path>
<path d="M 707.977 742.551 C 717.043 742.142 724.224 742.044 733.29 742.3 C 738.108 745.093 745.873 750.476 746.022 756.561 C 747.016 798.951 745.986 841.653 746.518 884.093 C 746.933 917.227 728.784 914.71 703.734 913.24 C 693.348 913.146 682.126 913.311 671.861 912.256 C 667.906 908.78 666.42 906.885 663.112 902.901 C 662.355 874.915 664.235 845.721 663.748 817.429 C 664.173 798.347 662.237 778.517 663.517 759.539 C 664.927 738.642 694.208 742.782 707.977 742.551 z" fill="#16a34a" transform="translate(0,0)"></path>
<path d="M 692.807 784.113 C 699.131 783.216 703.402 782.867 707.777 788.085 C 710.6 797.564 710.176 852.917 707.412 865.791 C 706.58 869.668 704.675 870.688 701.591 872.347 C 697.779 872.229 690.096 871.827 688.201 867.585 C 684.057 857.562 684.982 845.081 684.978 834.176 C 684.973 820.121 684.464 805.264 685.972 791.314 C 686.347 787.848 690.119 785.883 692.807 784.113 z" fill="rgb(252,252,251)" transform="translate(0,0)"></path>
<path d="M 726.706 754.572 C 729.836 754.124 730.874 755.242 732.986 756.975 C 734.13 759.32 734.554 760.686 734.58 763.399 C 734.975 805.944 735.016 848.792 734.602 891.307 C 734.484 903.423 716.671 900.737 708.739 900.238 C 699.108 899.633 683.937 900.334 675.359 897.205 C 674.062 894.433 674.452 895.917 674.692 892.478 C 679.078 888.762 701.493 891.179 708.751 891.558 C 716.471 891.67 728.135 893.39 728.251 882.365 C 728.614 847.893 728.89 813.289 728.287 778.826 C 728.226 775.321 726.767 767.917 724.441 765.193 C 713.779 760.788 679.249 767.034 674.833 762.321 C 675.498 759.561 678.34 756.326 681.321 756.196 C 696.446 755.536 711.57 755.305 726.706 754.572 z" fill="rgb(252,252,251)" transform="translate(0,0)"></path>
<path d="M 813.485 233.153 C 828.199 232.697 858.297 246.444 873.026 251.769 L 958.976 281.936 C 1042.25 310.714 1129.62 339.173 1211.75 370.352 C 1211.8 383.474 1211.75 396.597 1211.6 409.719 C 1180.41 395.711 1125.27 380.595 1090.79 369.964 L 888.756 306.492 C 873.69 301.936 815.665 280.496 804.625 283.38 C 785.82 288.292 753.198 299.25 733.099 305.326 L 484.93 380.981 L 484.866 342.38 C 508.272 335.163 530.363 327.323 553.531 319.765 C 604.354 303.346 655.046 286.522 705.601 269.297 L 773.08 245.794 C 785.453 241.55 800.943 235.856 813.485 233.153 z" fill="rgb(252,252,251)" transform="translate(0,0)"></path>
<path d="M 1171.32 1415.43 C 1181.71 1419.91 1205.1 1422.67 1217.77 1424.75 C 1194.01 1431.37 1168.47 1439.55 1144.56 1446.6 C 1081.49 1465.05 1018.59 1484.06 955.856 1503.65 C 918.15 1515.44 880.759 1528.23 842.89 1539.52 C 821.918 1545.77 809.082 1539.35 789.365 1533.14 C 776.773 1529.26 764.142 1525.5 751.473 1521.87 C 677.86 1500.78 603.201 1477.39 529.639 1457.77 C 515.031 1454.29 495.122 1448.59 480.818 1444.14 C 496.861 1439.58 513.027 1435.47 529.296 1431.81 C 542.079 1438.25 572.443 1445.99 587.443 1450.28 C 613.345 1457.96 639.295 1465.48 665.291 1472.83 C 692.789 1480.31 720.231 1487.99 747.614 1495.87 C 759.611 1499.35 810.957 1515.08 819.045 1513.98 C 861.589 1508.18 926.669 1485.54 967.359 1473.77 L 1171.32 1415.43 z" fill="rgb(252,252,251)" transform="translate(0,0)"></path>
<path d="M 806.172 314.132 L 807.192 314.843 C 808.695 319.522 807.752 368.014 807.745 375.677 L 807.616 551.062 L 806.956 1496.14 L 796.18 1493.6 L 795.421 1493.36 C 795.02 1492.93 794.619 1492.49 794.219 1492.06 C 794.662 1462.32 794.888 1406.38 794.906 1379.75 L 794.251 809.064 C 795.097 645.411 795.013 481.754 794 318.101 C 798.009 316.528 802.053 315.384 806.172 314.132 z" fill="rgb(252,252,251)" transform="translate(0,0)"></path>
<path d="M 1175.97 1338.14 C 1196.85 1340.99 1218.83 1346.03 1239.75 1349.82 L 1366.65 1373.29 L 1611.75 1420.37 L 1771.31 1451.54 C 1791.93 1455.57 1823.83 1460.14 1842.58 1465.39 C 1821.96 1476.62 1795.61 1487.14 1773.89 1497.41 C 1709.96 1527.63 1644.76 1556.09 1580.54 1585.68 L 1263.8 1732.06 C 1235.67 1744.8 1206.73 1759.4 1178.59 1771.51 C 1112.23 1753.6 1044.19 1731.51 978.267 1711.73 L 774.427 1649.3 C 728.772 1635.84 683.219 1622.03 637.77 1607.88 L 182.953 1468.9 L 367.355 1415.02 L 444.158 1392.6 C 470.222 1384.76 492.016 1377.57 518.704 1370.54 L 518.871 1407.69 C 502.25 1412.68 485.566 1417.45 468.823 1422.01 C 456.552 1425.47 431.601 1429.74 427.054 1443.48 C 424.865 1450.17 433.998 1457.44 439.511 1458.97 C 450.357 1461.97 460.962 1464.64 471.744 1467.93 C 503.639 1477.82 535.62 1487.43 567.685 1496.76 L 745.938 1548.82 C 834.713 1574.56 822.303 1577.73 912.343 1548.74 C 945.126 1538.11 977.979 1527.7 1010.9 1517.51 L 1176.97 1466.52 C 1201.64 1459.03 1230.58 1452.33 1253.43 1442.11 C 1269.87 1434.75 1263.7 1409.38 1245.92 1404.3 C 1223.26 1397.84 1198.99 1394.7 1176.06 1390.87 L 1175.97 1338.14 z" fill="#16a34a" transform="translate(0,0)"></path>
<path d="M 1379.27 1457.16 C 1389.29 1458.38 1409.94 1463.1 1420.92 1465.17 L 1491.86 1477.94 C 1460.07 1493.57 1406.18 1511.12 1371.73 1524.25 C 1262.24 1565.08 1152.41 1605 1042.26 1644 C 1036.46 1646.11 1013.41 1638.23 1006.08 1636.11 C 980.719 1628.75 955.46 1621.04 930.306 1613 C 974.996 1595.74 1023.53 1580.74 1069.16 1565.73 C 1137.56 1543.23 1205.81 1520.25 1273.9 1496.8 L 1332.67 1476.17 C 1344.16 1472.11 1369.44 1463.32 1379.27 1457.16 z" fill="rgb(252,252,251)" transform="translate(0,0)"></path>
<path d="M 1336.76 1584.12 C 1347.64 1585.76 1366.07 1590.99 1377.29 1593.83 C 1399.58 1599.36 1421.81 1605.07 1444.01 1610.96 C 1435.51 1615.74 1400.21 1630.11 1389.35 1634.88 L 1238.08 1699.5 C 1200.53 1687.01 1165.26 1678.59 1128.19 1667.02 C 1148.4 1657.42 1178.79 1646.34 1199.99 1638.12 C 1245.81 1620.71 1291.4 1602.71 1336.76 1584.12 z" fill="rgb(252,252,251)" transform="translate(0,0)"></path>
<path d="M 1546.58 1499.1 C 1566.75 1504.06 1586.94 1508.93 1607.16 1513.68 C 1615.7 1515.7 1634.94 1519.65 1642.47 1522.75 C 1612.33 1535.35 1549.62 1566.62 1516.43 1579.61 C 1515.2 1579.34 1513.98 1579.07 1512.76 1578.8 C 1481.11 1570.65 1444.37 1562.17 1412.31 1554.88 C 1428.19 1546.9 1448.63 1539.56 1465.41 1532.73 L 1546.58 1499.1 z" fill="rgb(252,252,251)" transform="translate(0,0)"></path>
<path d="M 1419.51 281.938 C 1429.55 282.966 1440.32 288.212 1449.79 291.798 C 1504.08 312.429 1557.4 335.396 1611.45 356.626 C 1628.36 363.27 1640.69 367.237 1641.06 387.692 C 1641.79 428.696 1641.8 469.627 1641.71 510.633 L 1641.52 686.164 L 1641.4 773.895 C 1641.47 790.039 1642.1 808.324 1640.68 824.4 C 1640.29 828.835 1635.46 834.39 1632.54 837.526 C 1621.56 840.535 1548.91 833.376 1532.58 832.512 L 1466.4 829.422 C 1454.04 828.873 1441.87 828.202 1429.52 827.448 C 1417.33 826.704 1411.41 814.87 1411.26 803.698 C 1410.8 768.021 1411.17 732.228 1411.27 696.519 L 1411.37 491.898 L 1411.13 354.745 C 1411.11 334.548 1410.35 311.556 1412.17 291.5 C 1412.57 287.103 1416.07 284.241 1419.51 281.938 z" fill="#16a34a" transform="translate(0,0)"></path>
<path d="M 1420.79 288.678 C 1433.14 289.779 1599.45 360.591 1622.4 369.072 C 1627.75 371.05 1632.88 375.867 1633.63 382.031 C 1636 401.728 1635.16 427.664 1635.24 447.761 C 1635.66 505.396 1635.62 563.033 1635.13 620.668 L 1635.22 751.942 C 1635.2 773.586 1635.37 795.568 1634.81 817.208 C 1634.68 822.104 1632.58 825.126 1630.07 829.333 C 1619.95 832.488 1560.86 826.362 1545.8 825.587 L 1469.4 822.085 C 1455.01 821.327 1436.5 821.2 1422.9 817.564 C 1414.74 807.867 1417.34 773.935 1417.36 760.731 L 1417.3 684.56 L 1417.99 441.413 C 1418.02 395.07 1417.44 348.615 1417.7 302.284 C 1417.73 296.315 1417.69 293.73 1420.79 288.678 z" fill="rgb(252,252,251)" transform="translate(0,0)"></path>
<path d="M 1512.39 365.267 C 1569.71 363.346 1603.79 435.13 1611.27 483.481 C 1618.87 532.656 1610.66 620.385 1547.26 629.289 C 1431.44 632.209 1401.04 382.481 1512.39 365.267 z" fill="#16a34a" transform="translate(0,0)"></path>
<path d="M 1560.83 412.446 C 1568.97 416.273 1581.31 442.203 1584.56 450.747 C 1598.04 486.972 1602.5 531.085 1586.77 567.29 C 1574.37 595.86 1549.31 612.22 1518.52 598.123 C 1514.73 595.652 1509.63 591.222 1506 588.258 C 1520.61 552.44 1546.58 512.539 1563.48 476.498 C 1555.98 474.658 1541.18 473.195 1533.03 472.15 C 1538.62 456.817 1553.22 430.34 1560.83 412.446 z" fill="rgb(252,252,251)" transform="translate(0,0)"></path>
<path d="M 1512.04 390.136 C 1525.61 388.566 1532.4 390.933 1543.86 397.316 C 1541.6 402.199 1539.06 406.916 1536.43 411.604 C 1522.06 437.186 1508.63 463.394 1493.5 488.533 C 1505.54 490.287 1517.3 491.001 1529.38 493.182 C 1519.81 511.449 1512.6 527.532 1504.33 546.33 C 1499.96 555.599 1495.42 564.789 1490.72 573.894 C 1480.78 558.879 1473.73 544.792 1468.58 527.436 C 1455.58 483.611 1457.08 405.122 1512.04 390.136 z" fill="rgb(252,252,251)" transform="translate(0,0)"></path>
<path d="M 1495.13 645.524 C 1500.56 646.198 1510.74 648.81 1516.48 650.112 C 1535.13 654.346 1553.78 657.497 1566.33 673.636 C 1580.5 691.859 1580.56 725.29 1560.77 739.813 C 1551.59 746.555 1540 747.415 1528.98 745.782 L 1517.91 744.005 L 1517.91 791.645 C 1510.32 791.293 1502.73 790.741 1495.16 789.989 C 1495.54 741.835 1495.53 693.678 1495.13 645.524 z" fill="#16a34a" transform="translate(0,0)"></path>
<path d="M 1517.09 672.665 C 1540.96 675.601 1571.02 690.294 1551.81 717.863 C 1539.98 726.432 1530.77 723.964 1517.03 722.082 L 1517.09 672.665 z" fill="rgb(252,252,251)" transform="translate(0,0)"></path>
<metadata><recraft-signature>{"signed_by": "recraft", "signature_b64": "d0tyWRU1erPAYOVOn/K0auTUMRI2WIHkQgdPBOr/qanKt7Mzln1EGV0YcPcwkOAcoT6PYaDFAgqZTgybxmPVDQ==", "signing_algo": "Ed25519", "generation_timestamp": 1778345337, "identifier": "ec4330c9-af5a-4aed-b73e-c2a95f2df7cd"}</recraft-signature></metadata></svg>