<svg xmlns="http://www.w3.org/2000/svg" height="1024" preserveAspectRatio="none" style="display: block;" version="1.1" viewBox="0 0 2048 2048" width="1024">
<path d="M 0 0 L 2048 0 L 2048 2048 L 0 2048 L 0 0 z" fill="#16a34a" transform="translate(0,0)"></path>
<path d="M 1000.49 127.387 C 1040.45 123.113 1087.67 136.595 1120.43 159.338 C 1138.48 171.87 1156.79 190.895 1172.34 206.671 L 1236.46 272.586 L 1429.41 466.889 L 1713.3 752.641 L 1799.04 839.486 C 1840.68 881.106 1878.82 911.444 1889.53 973.496 C 1897.86 1021.7 1888.74 1067.53 1861.27 1108.42 C 1848.35 1127.63 1831.41 1142.33 1815.17 1158.46 C 1721.89 1254.99 1625.63 1348.47 1531.07 1443.73 L 1240.14 1738.46 C 1217.04 1761.24 1194.21 1784.28 1171.65 1807.59 C 1128.26 1851.59 1102.06 1880.59 1037.76 1892.08 C 1036.91 1892.21 1036.05 1892.32 1035.19 1892.42 C 989.533 1897.97 943.569 1884.82 907.749 1855.97 C 899.835 1849.63 891.951 1842.28 884.956 1834.94 C 852.776 1801.14 819.701 1768.31 787.108 1734.9 L 570.302 1515.93 L 310.917 1255.41 L 232.685 1177.31 C 217.288 1161.98 197.227 1143.21 183.989 1126.52 C 163.958 1101.25 148.575 1066.07 144.686 1033.82 C 138.785 984.895 149.849 933.652 180.574 894.453 C 190.954 881.21 208.467 864.977 220.816 852.439 L 296.629 775.749 L 570.762 498.78 C 654.525 413.121 738.818 327.981 823.636 243.365 C 836.941 230.469 850.038 217.36 862.923 204.044 C 871.274 195.397 879.538 186.637 888.152 178.252 C 918.059 149.143 959.12 131.535 1000.49 127.387 z" fill="rgb(252,251,250)" transform="translate(0,0)"></path>
<path d="M 1002.51 168.38 C 1033.38 164.469 1071.81 175.054 1096.43 193.474 C 1121.13 211.96 1146.85 240.401 1169.49 262.668 C 1232.52 324.673 1294.05 388.678 1356.44 451.309 L 1662.21 758.775 L 1769.47 866.523 C 1787.41 884.824 1805.02 902.507 1822.19 921.661 C 1860.94 964.888 1862.3 1037.37 1829.13 1084.03 C 1815.08 1103.81 1795.87 1120.43 1778.33 1137.53 C 1759.71 1155.91 1741.19 1174.38 1722.75 1192.95 L 1463.51 1452.01 L 1227.18 1691.01 L 1157.98 1761.27 C 1120.4 1800.02 1087.54 1841.78 1031.24 1850.72 C 995.373 1855.18 958.499 1844.93 930.611 1821.82 C 918.932 1812.15 908.169 1799.76 897.395 1788.92 L 823.991 1714 C 777.048 1665.24 726.409 1615.63 678.338 1567.7 C 566.376 1456.59 455.099 1344.8 344.514 1232.32 L 254.074 1141.66 C 239.943 1127.31 224.099 1112.49 211.671 1096.87 C 194.917 1075.43 184.522 1049.72 181.671 1022.66 C 177.626 983.508 190.993 944.345 216.947 915.533 C 244.774 884.642 276.561 855.445 305.569 825.696 L 549.421 579.82 L 779.189 346.987 C 810.638 314.226 842.505 281.869 874.782 249.925 C 915.568 209.069 940.88 174.553 1002.51 168.38 z" fill="#16a34a" transform="translate(0,0)"></path>
<path d="M 1068.73 399.786 C 1071.74 401.118 1072.17 402.306 1074.27 405.604 C 1091.72 433.054 1108.62 460.998 1125.96 488.504 C 1158.25 539.165 1190.28 589.992 1222.05 640.982 C 1236.49 619.761 1245.5 624.859 1268.94 625.115 C 1285.88 625.279 1302.82 625.334 1319.76 625.28 L 1424.71 625.583 C 1447.65 625.617 1473.06 625.104 1495.76 626.205 C 1502.05 630.195 1503.62 631.788 1507.61 638.085 C 1509.44 657.547 1508.91 681.02 1508.92 700.898 L 1508.97 794.496 L 1509.04 1115.36 C 1523.88 1118.67 1529.15 1119.7 1542.85 1126.36 C 1564.43 1168.62 1561.07 1214.43 1565.15 1259.54 C 1570.21 1315.6 1548.95 1336.93 1494.85 1343.7 C 1495.46 1337.46 1495.88 1331.66 1496.07 1325.34 C 1499.06 1226.28 1382.7 1176.93 1314.17 1249.18 C 1288.56 1276.17 1286.62 1305.33 1287.42 1340.75 L 1128.29 1340.57 C 1078.6 1340.92 1016.9 1342.56 968.032 1340.53 C 966.156 1298.06 963.386 1265.09 927.673 1235.87 C 907.269 1219.34 881.069 1211.71 854.977 1214.7 C 809.968 1219.69 772.714 1254.14 766.089 1299.04 C 764.025 1313.03 765.547 1324.34 767.304 1338.16 C 741.362 1337.95 702.782 1330.25 677.787 1322.21 C 669.27 1319.6 658.775 1311.1 656.102 1302.08 C 643.077 1258.11 653.8 1189.06 690.02 1158.11 C 701.284 1148.48 727.188 1137.89 740.86 1131.5 C 786.999 1109.93 834.215 1090.21 880.923 1069.98 C 895.973 1063.19 911.29 1057 926.837 1051.44 C 1042.57 1010.24 1160.02 995.265 1282.26 1015.74 C 1307.84 1020.02 1335.05 1025.8 1358.64 1036.62 C 1378.34 1045.53 1397.05 1056.49 1414.47 1069.3 C 1423.47 1075.98 1464.85 1110.67 1472.52 1107.61 C 1473.42 1091.4 1472.91 1071.98 1472.88 1055.57 L 1472.78 966.088 L 1472.96 661.039 C 1421.49 661.852 1370.11 661.406 1318.65 661.495 C 1290.59 661.543 1262.6 662.024 1234.54 661.449 C 1237.16 666.792 1240.64 671.682 1243.8 676.713 C 1263.18 707.574 1283.51 737.945 1301.9 769.409 C 1317.31 759.925 1332.84 750.643 1348.49 741.566 C 1351.66 743.953 1356.21 746.805 1357.87 750.557 C 1358.87 752.809 1358.92 754.898 1357.89 757.17 C 1357.55 757.922 1065.45 936.046 1041.06 948.286 C 1036.32 944.42 1031.62 940.824 1032.93 934.169 C 1037.83 927.331 1074.83 906.112 1084.19 900.403 C 1067.07 867.463 1036.43 821.58 1016.11 788.414 L 932.147 649.937 C 906.311 607.47 880.641 566.374 856.322 523.03 C 881.939 506.686 913.259 490.288 940.157 474.215 C 933.232 460.295 925.233 446.61 917.53 433.079 C 934.714 422.644 954.059 410.457 971.673 401.236 C 980.003 414.535 987.737 428.759 996.04 442.297 C 1018.76 430.024 1047.65 413.961 1068.73 399.786 z" fill="rgb(252,251,250)" transform="translate(0,0)"></path>
<path d="M 1146.66 1021.43 C 1191.04 1017.2 1298.83 1023.2 1334.41 1050.85 C 1346.33 1060.11 1362.56 1091.03 1364.05 1106.02 C 1364.84 1113.77 1362.36 1121.5 1357.22 1127.34 C 1354.01 1131.03 1348.55 1135.31 1343.85 1136.37 C 1319.64 1141.83 1290.31 1145.3 1265.66 1148.28 C 1194.27 1156.91 1120.54 1165.68 1048.75 1169.27 C 1005.2 1172.52 872.378 1180.03 839.57 1152.94 C 834.705 1148.93 831.355 1143.74 830.838 1137.35 C 830.114 1128.43 833.381 1120.92 839.327 1114.37 C 853.32 1098.97 877.068 1088.41 895.985 1079.94 C 980.184 1042.24 1055.25 1027.64 1146.66 1021.43 z" fill="#16a34a" transform="translate(0,0)"></path>
<path d="M 1159.12 1026.44 C 1202.95 1024.12 1288.53 1027.97 1326.98 1052.52 C 1342.5 1063.88 1353.13 1086.63 1357.94 1104.44 C 1361.02 1115.83 1351.65 1128.61 1340.96 1131.27 C 1318.52 1136.85 1293.46 1138.84 1270.24 1141.76 C 1207.46 1149.79 1150.8 1155.1 1087.7 1160.39 C 1091.33 1141.09 1098.95 1117.88 1104.58 1098.55 C 1111.41 1075.09 1117.45 1051.88 1124.02 1028.39 C 1135.23 1027.04 1147.74 1026.86 1159.12 1026.44 z" fill="rgb(252,251,250)" transform="translate(0,0)"></path>
<path d="M 1161.05 1045.5 C 1201.76 1044 1266.47 1047.56 1304.06 1063.83 C 1319.97 1070.71 1323.97 1084.51 1329.38 1099.33 C 1330.63 1102.77 1332.35 1109.97 1330.6 1113.41 C 1323.01 1115.7 1285.62 1119.95 1275.9 1121.27 C 1267.39 1121.65 1245.74 1125.01 1236.47 1126.15 C 1209.82 1129.49 1183.14 1132.58 1156.44 1135.42 C 1147.51 1136.37 1134.37 1138.25 1125.34 1137.57 C 1123.97 1137.47 1124.03 1136.76 1123.15 1135.22 C 1123.26 1125.4 1130.35 1102.54 1133.16 1092.28 L 1145.6 1046.01 L 1161.05 1045.5 z" fill="#16a34a" transform="translate(0,0)"></path>
<path d="M 1111.9 1029.44 C 1113.88 1029.19 1114.75 1029.32 1116.75 1029.39 L 1117.43 1030.59 C 1105.26 1072.57 1093.21 1119.69 1080.01 1160.8 C 1027.94 1166.36 904.616 1172.72 857.02 1155.37 C 853.572 1153.62 850.08 1151.89 846.951 1149.6 C 842.27 1146.17 838.43 1141.5 837.803 1135.54 C 837.079 1128.66 840.444 1122.24 844.798 1117.17 C 872.493 1084.9 991.334 1048.96 1034.51 1039.95 C 1060.07 1034.62 1085.93 1031.82 1111.9 1029.44 z" fill="rgb(252,251,250)" transform="translate(0,0)"></path>
<path d="M 1081.77 1052.43 C 1082.47 1052.34 1083.96 1052.43 1084.72 1052.45 C 1085.11 1055.03 1062.19 1138.36 1059.38 1145.07 L 961.777 1146.11 C 933.756 1146.18 903.304 1147.58 876.233 1140.62 C 872.117 1139.12 869.755 1138.26 867.92 1134.35 C 867.829 1123.81 891.269 1112.19 899.817 1107.8 C 954.372 1079.78 1020.69 1058.17 1081.77 1052.43 z" fill="#16a34a" transform="translate(0,0)"></path>
<path d="M 1069.06 482.794 C 1071.81 483.828 1081.64 500.946 1083.81 504.379 L 1118.82 560.694 C 1141.42 596.406 1163.76 632.282 1185.84 668.318 C 1195.06 683.211 1205.96 698.963 1214.46 713.808 C 1202.74 722.559 1178.05 736.642 1164.82 744.693 C 1135.16 762.695 1105.6 780.859 1076.15 799.186 L 1075.33 799.452 C 1073.99 798.657 1047.5 753.961 1044.05 748.34 L 978.3 640.926 C 962.745 615.803 946.013 590.12 931.468 564.463 C 974.458 536.568 1024.25 509.044 1069.06 482.794 z" fill="#16a34a" transform="translate(0,0)"></path>
<path d="M 1062.52 504.82 C 1063.94 506.36 1077.46 528.512 1079.46 531.862 C 1092.86 554.415 1108.52 577.289 1121.14 600.104 C 1112.45 606.326 1101.38 612.119 1092.21 617.899 C 1066.84 633.889 1039.23 648.218 1014.01 664.131 C 1009.01 661.029 963.17 581.579 955.489 569.031 C 972.756 560.536 990.702 549.011 1007.32 538.946 C 1025.42 527.982 1045.11 516.657 1062.52 504.82 z" fill="rgb(252,251,250)" transform="translate(0,0)"></path>
<path d="M 1083.44 649.606 C 1087.56 652.345 1108.14 685.432 1112.87 692.301 C 1118.56 682.139 1123.8 675.871 1131.37 667.078 C 1129.3 690.269 1127.2 706.642 1123.3 729.675 L 1121.32 740.757 C 1114.26 727.638 1106.88 714.693 1099.18 701.934 C 1093.96 711.023 1091.14 715.403 1083.84 722.84 C 1082.54 701.62 1083.51 671.853 1083.44 649.606 z" fill="rgb(252,251,250)" transform="translate(0,0)"></path>
<path d="M 775.503 1158.4 C 780.105 1157.75 796.402 1156.34 798.304 1161.34 C 788.851 1173.81 747.77 1203.3 734.07 1216.26 C 725.279 1224.57 712.576 1222.31 701.036 1220.59 C 645.141 1209.45 697.635 1183.49 719.665 1173.12 C 737.276 1164.84 756.152 1160.06 775.503 1158.4 z" fill="#16a34a" transform="translate(0,0)"></path>
<path d="M 1532.52 1149.47 L 1544.49 1149.97 C 1549.09 1165.85 1551.98 1182.61 1554.57 1198.91 C 1546.67 1198.9 1537.05 1200.19 1529 1200.77 C 1514.94 1201.79 1500.78 1202.59 1486.75 1203.84 C 1478.96 1204.27 1471.18 1204.8 1463.4 1205.42 C 1476.14 1163.38 1487.38 1152.95 1532.52 1149.47 z" fill="#16a34a" transform="translate(0,0)"></path>
<path d="M 820.725 606.941 C 823.933 610.641 830.645 623.761 832.91 628.591 C 809.948 643.307 781.029 655.539 759.505 671.419 C 767.638 686.836 786.279 716.673 796.051 731.568 C 819.775 716.987 844.408 704.589 868.744 689.577 C 873.468 695.879 878.895 704.783 882.418 711.835 C 861.383 725.273 828.924 741.861 806.506 754.009 C 812.929 764.338 818.05 772.866 823.778 783.612 C 796.08 797.423 769.671 815.132 742.87 830.555 C 724.141 840.984 707.875 857.17 685.484 858.692 C 650.126 861.095 627.808 842.451 612.333 812.731 C 464.267 896.702 372.254 1121.73 480.131 1269.74 C 531.484 1340.2 606.891 1363.3 689.903 1365.38 C 723.37 1366.59 761.478 1365.17 795.411 1365.03 C 803.652 1377.8 813.949 1385.14 827.024 1392.18 C 794.791 1393.23 758.503 1392.23 726.021 1392.18 C 691.152 1391.64 656.846 1392.43 622.326 1386.83 C 532.495 1372.19 457.863 1311.72 424.986 1226.99 C 369.407 1083.75 432.883 926.784 543.084 829.134 C 559.109 814.934 578.868 801.948 596.443 789.598 C 594.22 785.745 592.026 781.876 589.859 777.991 C 579.851 760.006 574.733 746.411 580.913 725.366 C 584.271 714.027 590.592 703.788 599.226 695.706 C 609.862 685.782 628.146 677.163 640.923 669.387 C 669.955 651.718 699.176 635.052 729.057 618.852 L 746.771 647.527 C 765.472 635.854 800.641 617.265 820.725 606.941 z" fill="rgb(252,251,250)" transform="translate(0,0)"></path>
<path d="M 679.417 701.653 C 681.334 708.173 683.819 739.564 684.538 747.397 C 694.019 747.087 703.492 746.586 712.953 745.895 C 705.273 767.374 694.786 789.762 686.523 811.662 L 685.61 812.321 C 684.089 808.848 680.501 775.079 679.843 769.286 C 671.353 770.049 662.615 770.101 654.077 770.29 C 663.23 749.15 671.757 723.633 679.417 701.653 z" fill="#16a34a" transform="translate(0,0)"></path>
<path d="M 854.367 1244.59 C 895.028 1238.18 933.238 1265.8 939.886 1306.43 C 946.534 1347.05 919.124 1385.42 878.539 1392.3 C 837.624 1399.23 798.879 1371.55 792.177 1330.6 C 785.475 1289.65 813.376 1251.06 854.367 1244.59 z" fill="rgb(252,251,250)" transform="translate(0,0)"></path>
<path d="M 858.833 1268.77 C 885.905 1264.73 911.129 1283.4 915.17 1310.47 C 919.212 1337.54 900.541 1362.76 873.469 1366.8 C 846.399 1370.84 821.179 1352.17 817.138 1325.1 C 813.096 1298.04 831.764 1272.81 858.833 1268.77 z" fill="#16a34a" transform="translate(0,0)"></path>
<path d="M 1389.33 1246.35 C 1429.99 1244.8 1464.32 1276.27 1466.28 1316.91 C 1468.25 1357.55 1437.12 1392.2 1396.5 1394.57 C 1369.86 1396.13 1344.44 1383.26 1329.91 1360.87 C 1315.39 1338.48 1314.02 1310.02 1326.31 1286.33 C 1338.6 1262.64 1362.66 1247.38 1389.33 1246.35 z" fill="rgb(252,251,250)" transform="translate(0,0)"></path>
<path d="M 1386.63 1269.82 C 1414.32 1266.97 1439.1 1287.04 1442.07 1314.71 C 1445.05 1342.39 1425.09 1367.26 1397.43 1370.35 C 1369.6 1373.47 1344.54 1353.36 1341.54 1325.51 C 1338.55 1297.67 1358.77 1272.69 1386.63 1269.82 z" fill="#16a34a" transform="translate(0,0)"></path>
<path d="M 935.029 1364.96 L 1144.72 1365.02 C 1151.23 1373.99 1157.68 1383 1164.08 1392.05 L 1134.42 1392.16 C 1058.84 1392.72 983.263 1392.69 907.687 1392.06 C 920.412 1383.32 925.899 1377.33 935.029 1364.96 z" fill="rgb(252,251,250)" transform="translate(0,0)"></path>
<path d="M 1386.88 1223.42 C 1397.73 1222.67 1408.62 1224.03 1418.96 1227.41 C 1457.75 1239.93 1486.23 1273.53 1488.97 1315.31 C 1489.59 1324.7 1492.49 1338.25 1481.76 1341.94 C 1476.79 1339.96 1477.45 1334.21 1477.78 1329.44 C 1481.2 1279.91 1445.64 1240.91 1398.24 1235.36 C 1374.71 1233.64 1349.51 1242.56 1332.43 1258.87 C 1316.6 1274.19 1307.19 1294.97 1306.11 1316.97 C 1305.66 1325.46 1309.05 1335.79 1302.42 1341.31 C 1298.35 1341.36 1295.97 1340.32 1295.63 1335.78 C 1291.12 1276.35 1326.52 1229.09 1386.88 1223.42 z" fill="rgb(252,251,250)" transform="translate(0,0)"></path>
<path d="M 854.904 1223.33 C 859.902 1222.61 868.117 1222.58 873.132 1223.03 C 897.751 1225.26 920.454 1237.25 936.174 1256.33 C 946.53 1268.94 954.291 1284.7 956.73 1300.87 C 957.953 1308.98 963.246 1333.16 956.038 1338.54 C 953.454 1337.87 950.025 1335.12 950.01 1332.57 C 949.732 1282.49 930.004 1244 874.256 1234.29 C 820.919 1229.4 779.843 1269.94 782.338 1322.54 C 782.563 1327.28 783.804 1334.26 780.675 1337.97 C 777.191 1338.68 779.012 1338.67 775.073 1337 C 774.62 1335.96 774.023 1334.68 773.871 1333.54 C 766.34 1277.13 799.058 1233.22 854.904 1223.33 z" fill="rgb(252,251,250)" transform="translate(0,0)"></path>
<metadata><recraft-signature>{"signed_by": "recraft", "signature_b64": "e+z7hjvx/epVaHyR9PGbVEYubLy8B3zZccNY/VUWXT18JPo0lCJwfp8INeXs2HXy1J3zhvSKqGYDZwum9iXCCA==", "signing_algo": "Ed25519", "generation_timestamp": 1778344205, "identifier": "45fc9bb1-3f1c-42b1-99b6-93013468fc4e"}</recraft-signature></metadata></svg>